<svg xmlns="http://www.w3.org/2000/svg" xmlns:xlink="http://www.w3.org/1999/xlink" width="80" zoomAndPan="magnify" viewBox="0 0 60 60" height="80" preserveAspectRatio="xMidYMid meet" version="1.0"><defs><clipPath id="77e7021cc5"><path d="M 2.605469 2.605469 L 57.355469 2.605469 L 57.355469 57.355469 L 2.605469 57.355469 Z M 2.605469 2.605469 " clip-rule="nonzero"/></clipPath><clipPath id="a57168f996"><path d="M 8.53125 8.746094 L 51.28125 8.746094 L 51.28125 51.496094 L 8.53125 51.496094 Z M 8.53125 8.746094 " clip-rule="nonzero"/></clipPath></defs><path fill="#162b53" d="M 56.191406 30 C 56.191406 30.855469 56.148438 31.710938 56.066406 32.566406 C 55.980469 33.417969 55.855469 34.265625 55.6875 35.109375 C 55.523438 35.949219 55.3125 36.78125 55.0625 37.601562 C 54.816406 38.421875 54.527344 39.230469 54.199219 40.023438 C 53.871094 40.816406 53.503906 41.589844 53.097656 42.347656 C 52.695312 43.101562 52.253906 43.835938 51.777344 44.550781 C 51.300781 45.265625 50.789062 45.953125 50.246094 46.617188 C 49.703125 47.277344 49.125 47.914062 48.519531 48.519531 C 47.914062 49.125 47.277344 49.703125 46.617188 50.246094 C 45.953125 50.789062 45.265625 51.300781 44.550781 51.777344 C 43.835938 52.253906 43.101562 52.695312 42.347656 53.097656 C 41.589844 53.503906 40.816406 53.871094 40.023438 54.199219 C 39.230469 54.527344 38.421875 54.816406 37.601562 55.0625 C 36.78125 55.3125 35.949219 55.523438 35.109375 55.6875 C 34.265625 55.855469 33.417969 55.980469 32.566406 56.066406 C 31.710938 56.148438 30.855469 56.191406 30 56.191406 C 29.140625 56.191406 28.285156 56.148438 27.429688 56.066406 C 26.578125 55.980469 25.730469 55.855469 24.886719 55.6875 C 24.046875 55.523438 23.214844 55.3125 22.394531 55.0625 C 21.574219 54.816406 20.765625 54.527344 19.972656 54.199219 C 19.179688 53.871094 18.40625 53.503906 17.648438 53.097656 C 16.894531 52.695312 16.160156 52.253906 15.445312 51.777344 C 14.730469 51.300781 14.042969 50.789062 13.378906 50.246094 C 12.71875 49.703125 12.082031 49.125 11.476562 48.519531 C 10.871094 47.914062 10.292969 47.277344 9.75 46.617188 C 9.207031 45.953125 8.695312 45.265625 8.21875 44.550781 C 7.742188 43.835938 7.300781 43.101562 6.898438 42.347656 C 6.492188 41.589844 6.125 40.816406 5.796875 40.023438 C 5.46875 39.230469 5.179688 38.421875 4.933594 37.601562 C 4.683594 36.78125 4.476562 35.949219 4.308594 35.109375 C 4.140625 34.265625 4.015625 33.417969 3.929688 32.566406 C 3.847656 31.710938 3.804688 30.855469 3.804688 30 C 3.804688 29.140625 3.847656 28.285156 3.929688 27.429688 C 4.015625 26.578125 4.140625 25.730469 4.308594 24.886719 C 4.476562 24.046875 4.683594 23.214844 4.933594 22.394531 C 5.179688 21.574219 5.46875 20.765625 5.796875 19.972656 C 6.125 19.179688 6.492188 18.40625 6.898438 17.648438 C 7.300781 16.894531 7.742188 16.160156 8.21875 15.445312 C 8.695312 14.730469 9.207031 14.042969 9.75 13.378906 C 10.292969 12.71875 10.871094 12.082031 11.476562 11.476562 C 12.082031 10.871094 12.71875 10.292969 13.378906 9.75 C 14.042969 9.207031 14.730469 8.695312 15.445312 8.21875 C 16.160156 7.742188 16.894531 7.300781 17.648438 6.898438 C 18.40625 6.492188 19.179688 6.125 19.972656 5.796875 C 20.765625 5.46875 21.574219 5.179688 22.394531 4.933594 C 23.214844 4.683594 24.046875 4.476562 24.886719 4.308594 C 25.730469 4.140625 26.578125 4.015625 27.429688 3.929688 C 28.285156 3.847656 29.140625 3.804688 30 3.804688 C 30.855469 3.804688 31.710938 3.847656 32.566406 3.929688 C 33.417969 4.015625 34.265625 4.140625 35.109375 4.308594 C 35.949219 4.476562 36.78125 4.683594 37.601562 4.933594 C 38.421875 5.179688 39.230469 5.46875 40.023438 5.796875 C 40.816406 6.125 41.589844 6.492188 42.347656 6.898438 C 43.101562 7.300781 43.835938 7.742188 44.550781 8.21875 C 45.265625 8.695312 45.953125 9.207031 46.617188 9.75 C 47.277344 10.292969 47.914062 10.871094 48.519531 11.476562 C 49.125 12.082031 49.703125 12.71875 50.246094 13.378906 C 50.789062 14.042969 51.300781 14.730469 51.777344 15.445312 C 52.253906 16.160156 52.695312 16.894531 53.097656 17.648438 C 53.503906 18.40625 53.871094 19.179688 54.199219 19.972656 C 54.527344 20.765625 54.816406 21.574219 55.0625 22.394531 C 55.3125 23.214844 55.523438 24.046875 55.6875 24.886719 C 55.855469 25.730469 55.980469 26.578125 56.066406 27.429688 C 56.148438 28.285156 56.191406 29.140625 56.191406 30 Z M 56.191406 30 " fill-opacity="1" fill-rule="nonzero"/><g clip-path="url(#77e7021cc5)"><path fill="#162b53" d="M 30 57.390625 C 14.933594 57.390625 2.605469 45.0625 2.605469 30 C 2.605469 14.933594 14.933594 2.605469 30 2.605469 C 45.0625 2.605469 57.390625 14.933594 57.390625 30 C 57.390625 45.0625 45.0625 57.390625 30 57.390625 Z M 30 5.171875 C 16.300781 5.171875 5.171875 16.300781 5.171875 30 C 5.171875 43.695312 16.300781 54.824219 30 54.824219 C 43.695312 54.824219 54.824219 43.695312 54.824219 30 C 54.824219 16.300781 43.695312 5.171875 30 5.171875 Z M 30 5.171875 " fill-opacity="1" fill-rule="nonzero"/></g><g clip-path="url(#a57168f996)"><path fill="#ffc62f" d="M 50.726562 26.300781 C 50.078125 22.515625 48.359375 18.960938 45.875 16.054688 C 44.492188 14.445312 42.824219 13.035156 41.019531 11.90625 C 40.964844 11.878906 40.90625 11.847656 40.851562 11.847656 C 39.214844 10.859375 37.433594 10.070312 35.574219 9.535156 L 35.234375 9.449219 C 35.207031 9.449219 35.175781 9.421875 35.121094 9.421875 C 34.953125 9.394531 34.78125 9.335938 34.613281 9.308594 C 34.445312 9.28125 34.273438 9.222656 34.105469 9.195312 C 33.03125 8.96875 31.933594 8.828125 30.804688 8.773438 C 30.746094 8.773438 30.691406 8.773438 30.660156 8.773438 C 30.378906 8.773438 30.097656 8.746094 29.816406 8.746094 C 29.785156 8.746094 29.730469 8.746094 29.703125 8.746094 C 29.617188 8.746094 29.503906 8.746094 29.421875 8.746094 C 29.136719 8.746094 28.855469 8.746094 28.601562 8.773438 C 28.488281 8.773438 28.375 8.800781 28.261719 8.800781 C 28.007812 8.828125 27.753906 8.828125 27.527344 8.859375 C 27.386719 8.886719 27.246094 8.886719 27.105469 8.914062 C 26.796875 8.96875 26.597656 9 26.371094 9.027344 C 26.316406 9.027344 26.257812 9.027344 26.230469 9.054688 L 26.035156 9.082031 C 20.839844 10.015625 16.351562 12.808594 13.191406 16.730469 L 13.164062 16.730469 L 13.078125 16.84375 C 12.121094 18.085938 11.273438 19.414062 10.59375 20.851562 L 10.03125 22.039062 L 10.117188 22.007812 C 9.097656 24.464844 8.535156 27.144531 8.535156 29.996094 C 8.535156 41.710938 18.074219 51.25 29.785156 51.25 C 38.113281 51.25 45.335938 46.421875 48.808594 39.421875 C 48.835938 39.394531 48.867188 39.367188 48.894531 39.308594 C 50.839844 35.273438 51.460938 30.730469 50.726562 26.300781 Z M 45.675781 29.628906 C 45.308594 29.347656 44.828125 29.261719 44.351562 29.261719 C 43.277344 29.289062 42.148438 29.828125 41.074219 29.546875 C 40.203125 29.320312 39.664062 28.472656 39.328125 27.683594 C 38.929688 26.722656 38.707031 25.621094 38.707031 24.578125 C 38.707031 23.535156 38.929688 22.234375 40.003906 21.726562 C 40.484375 21.5 41.046875 21.386719 41.554688 21.277344 C 42.148438 21.132812 42.742188 21.023438 43.335938 21.105469 C 44.351562 21.246094 45.28125 22.152344 46.296875 21.558594 C 47.144531 21.105469 47.453125 19.835938 46.609375 19.1875 C 46.242188 18.90625 45.761719 18.847656 45.335938 18.875 C 44.773438 18.933594 44.179688 19.1875 43.644531 18.847656 C 43.222656 18.59375 42.9375 18.171875 42.515625 17.945312 C 42.09375 17.691406 41.585938 17.578125 41.132812 17.804688 C 40.679688 18 40.484375 18.425781 40.285156 18.847656 C 40.089844 19.214844 39.863281 19.496094 39.4375 19.609375 C 39.074219 19.722656 38.648438 19.695312 38.339844 19.46875 C 38.085938 19.300781 37.800781 18.792969 38.167969 18.621094 C 38.480469 18.453125 38.929688 18.539062 39.269531 18.453125 C 39.664062 18.367188 40.117188 18.085938 40.058594 17.636719 C 40.003906 17.15625 39.550781 16.84375 39.101562 16.703125 C 38.988281 16.675781 38.875 16.648438 38.734375 16.617188 C 38.816406 16.5625 38.902344 16.507812 39.015625 16.476562 C 40.003906 16.054688 41.1875 16.335938 42.234375 16.140625 C 42.65625 16.054688 43.164062 15.855469 43.304688 15.40625 C 43.445312 14.953125 43.164062 14.558594 42.742188 14.417969 C 42.261719 14.21875 41.695312 14.332031 41.1875 14.304688 C 40.792969 14.277344 40.144531 14.164062 40.117188 13.65625 C 40.089844 13.289062 40.425781 13.007812 40.765625 12.808594 C 43.757812 14.726562 46.210938 17.410156 47.851562 20.542969 C 49.628906 23.957031 50.417969 27.851562 50.109375 31.691406 C 49.9375 33.976562 49.34375 36.207031 48.414062 38.324219 C 47.992188 37.703125 47.738281 36.96875 47.566406 36.234375 C 47.371094 35.246094 47.425781 34.285156 47.339844 33.296875 C 47.3125 32.789062 47.171875 32.3125 46.804688 31.914062 C 46.523438 31.605469 46.042969 31.40625 46.042969 30.957031 C 46.101562 30.390625 46.128906 29.96875 45.675781 29.628906 Z M 26.570312 9.789062 C 26.570312 9.789062 26.597656 9.789062 26.597656 9.789062 C 26.796875 9.761719 27.019531 9.730469 27.246094 9.703125 C 27.359375 9.675781 27.5 9.675781 27.613281 9.648438 C 27.839844 9.621094 28.066406 9.621094 28.261719 9.589844 C 28.402344 9.589844 28.515625 9.589844 28.628906 9.589844 C 28.855469 9.589844 29.054688 9.5625 29.277344 9.5625 C 29.421875 9.5625 29.53125 9.5625 29.675781 9.5625 C 29.871094 9.5625 30.097656 9.5625 30.296875 9.5625 C 30.4375 9.5625 30.578125 9.5625 30.691406 9.5625 C 30.914062 9.589844 31.113281 9.589844 31.339844 9.621094 C 31.480469 9.621094 31.621094 9.648438 31.734375 9.648438 C 31.933594 9.675781 32.128906 9.703125 32.328125 9.703125 C 32.46875 9.730469 32.609375 9.730469 32.777344 9.761719 C 32.949219 9.789062 33.117188 9.816406 33.285156 9.84375 C 33.457031 9.875 33.625 9.902344 33.792969 9.929688 C 33.9375 9.957031 34.078125 9.988281 34.21875 10.015625 C 34.359375 10.042969 34.527344 10.070312 34.667969 10.128906 C 34.613281 10.382812 34.527344 10.636719 34.414062 10.859375 C 34.046875 11.625 33.371094 12.246094 32.582031 12.554688 C 32.523438 12.582031 32.441406 12.609375 32.382812 12.640625 C 32.015625 12.78125 31.59375 12.921875 31.3125 13.289062 C 31 13.683594 30.972656 14.191406 30.972656 14.613281 C 30.972656 14.699219 30.972656 14.8125 30.972656 14.898438 C 30.492188 14.898438 30.070312 14.390625 29.84375 13.910156 C 29.730469 13.710938 29.644531 13.484375 29.5625 13.261719 C 29.449219 12.976562 29.308594 12.695312 29.167969 12.414062 C 28.800781 11.765625 28.347656 11.3125 27.839844 11.117188 C 27.671875 11.03125 27.472656 11.003906 27.304688 10.972656 C 27.019531 10.917969 26.796875 10.859375 26.652344 10.71875 C 26.371094 10.496094 26.457031 10.097656 26.570312 9.789062 Z M 21.546875 17.636719 L 21.941406 17.917969 L 22.167969 17.464844 C 22.503906 16.789062 22.84375 16.109375 23.296875 15.519531 C 23.804688 14.925781 24.394531 14.53125 24.988281 14.445312 C 25.160156 14.417969 25.414062 14.417969 25.582031 14.503906 C 25.695312 14.558594 25.808594 14.699219 25.921875 14.839844 C 26.398438 15.433594 26.851562 16.054688 27.273438 16.703125 C 27.527344 17.097656 27.472656 17.210938 27.472656 17.238281 C 27.472656 17.238281 27.417969 17.296875 27.304688 17.351562 C 27.050781 17.4375 26.738281 17.4375 26.398438 17.4375 C 26.089844 17.4375 25.75 17.4375 25.414062 17.523438 C 25.1875 17.578125 24.90625 17.71875 24.761719 18 C 24.679688 18.171875 24.679688 18.367188 24.761719 18.539062 C 24.90625 18.820312 25.160156 18.90625 25.328125 18.960938 C 25.355469 18.960938 25.414062 18.988281 25.441406 18.988281 C 25.441406 19.019531 25.441406 19.046875 25.414062 19.074219 C 25.328125 19.1875 25.1875 19.242188 25.015625 19.328125 L 24.933594 19.355469 C 23.859375 19.863281 22.675781 20.429688 22.109375 21.558594 C 21.855469 22.09375 21.773438 22.660156 21.6875 23.222656 C 21.601562 23.929688 21.488281 24.578125 21.066406 25 C 20.839844 25.226562 20.5 25.367188 20.191406 25.507812 L 18.582031 26.242188 C 18.101562 26.46875 17.539062 26.722656 17.144531 27.175781 C 16.71875 27.625 16.4375 28.386719 16.71875 29.035156 C 16.890625 29.402344 17.257812 29.6875 17.679688 29.769531 C 18.046875 29.828125 18.414062 29.742188 18.667969 29.488281 C 18.835938 29.320312 18.921875 29.148438 18.976562 29.007812 C 19.035156 28.925781 19.0625 28.839844 19.117188 28.78125 C 19.117188 28.78125 19.117188 28.78125 19.117188 28.753906 L 19.117188 28.78125 C 19.175781 29.546875 19.683594 30.222656 20.386719 30.503906 C 20.472656 30.53125 20.585938 30.5625 20.671875 30.589844 C 20.839844 30.644531 20.980469 30.675781 21.066406 30.757812 C 21.179688 30.84375 21.234375 31.039062 21.261719 31.351562 C 21.261719 31.464844 21.261719 31.578125 21.261719 31.691406 C 20.5 30.929688 19.515625 30.390625 18.46875 30.164062 C 17.820312 30.023438 17.171875 29.996094 16.550781 29.96875 C 16.097656 29.941406 15.675781 29.941406 15.28125 29.882812 C 14.601562 29.800781 13.417969 29.515625 12.882812 28.585938 C 12.457031 27.824219 12.597656 26.863281 12.769531 25.847656 C 12.824219 25.507812 12.882812 25.140625 12.910156 24.804688 C 12.9375 24.4375 12.964844 23.929688 12.710938 23.503906 L 12.429688 22.996094 L 12.0625 23.449219 C 12.035156 23.476562 11.976562 23.535156 11.949219 23.5625 C 12.007812 23.109375 12.203125 22.6875 12.484375 22.347656 C 12.542969 22.292969 12.597656 22.234375 12.628906 22.179688 C 12.769531 22.039062 12.910156 21.867188 13.023438 21.671875 C 13.25 21.277344 13.25 20.824219 13.023438 20.484375 C 12.769531 20.117188 12.316406 20.003906 11.78125 20.148438 C 12.316406 19.1875 12.910156 18.285156 13.558594 17.4375 C 13.699219 17.410156 13.8125 17.378906 13.953125 17.378906 C 14.574219 17.269531 15.195312 17.125 15.730469 16.789062 C 16.210938 16.449219 16.550781 15.996094 16.890625 15.574219 L 16.917969 15.519531 C 17.511719 14.726562 18.160156 13.910156 19.035156 13.402344 C 19.910156 12.894531 20.953125 12.835938 21.660156 13.261719 C 21.660156 13.261719 21.660156 13.261719 21.6875 13.261719 C 21.6875 13.261719 21.6875 13.289062 21.660156 13.316406 C 21.574219 13.515625 21.488281 13.683594 21.40625 13.851562 C 21.179688 14.304688 20.953125 14.785156 20.839844 15.292969 C 20.671875 16.25 20.925781 17.15625 21.546875 17.636719 Z M 17.539062 13.628906 C 17.085938 14.078125 16.691406 14.585938 16.351562 15.039062 L 16.324219 15.09375 C 16.015625 15.488281 15.730469 15.886719 15.363281 16.140625 C 15.109375 16.308594 14.800781 16.421875 14.460938 16.507812 C 15.363281 15.433594 16.410156 14.472656 17.539062 13.628906 Z M 29.785156 50.429688 C 18.527344 50.429688 9.351562 41.257812 9.351562 29.996094 C 9.351562 26.890625 10.058594 23.957031 11.300781 21.304688 C 11.46875 21.21875 11.609375 21.132812 11.78125 21.050781 C 12.089844 20.910156 12.402344 20.878906 12.457031 20.992188 C 12.515625 21.050781 12.484375 21.191406 12.402344 21.304688 C 12.34375 21.417969 12.230469 21.53125 12.121094 21.671875 C 12.0625 21.726562 12.007812 21.785156 11.949219 21.867188 C 11.414062 22.488281 11.132812 23.335938 11.214844 24.183594 L 11.246094 24.550781 L 11.609375 24.550781 C 11.808594 24.550781 12.007812 24.492188 12.203125 24.410156 C 12.203125 24.519531 12.203125 24.664062 12.175781 24.773438 C 12.148438 25.085938 12.089844 25.425781 12.035156 25.761719 C 11.867188 26.863281 11.667969 27.992188 12.230469 29.007812 C 12.910156 30.222656 14.40625 30.589844 15.222656 30.703125 C 15.675781 30.757812 16.128906 30.785156 16.578125 30.816406 C 17.199219 30.84375 17.792969 30.871094 18.355469 31.011719 C 19.515625 31.265625 20.585938 31.972656 21.292969 32.960938 L 21.773438 33.636719 C 21.660156 33.890625 21.574219 34.144531 21.546875 34.425781 C 21.375 36.375 22.871094 37.84375 24.113281 39.140625 C 24.734375 39.816406 25.355469 40.523438 25.609375 41.425781 C 25.890625 42.386719 25.949219 43.429688 26.257812 44.390625 C 26.570312 45.292969 26.992188 46.167969 27.558594 46.929688 C 28.121094 47.691406 28.769531 48.398438 29.644531 48.792969 C 30.519531 49.1875 31.535156 49.214844 32.496094 49.214844 C 32.890625 49.214844 33.316406 49.105469 33.457031 48.679688 C 33.597656 48.257812 33.34375 47.832031 33.171875 47.4375 C 32.777344 46.507812 32.355469 45.519531 32.296875 44.503906 C 32.269531 43.96875 32.410156 43.542969 32.75 43.148438 C 33.089844 42.753906 33.484375 42.414062 33.824219 42.019531 C 34.445312 41.3125 35.121094 40.523438 35.289062 39.5625 C 35.460938 38.632812 35.121094 37.785156 35.035156 36.855469 C 34.980469 36.347656 35.121094 36.007812 35.320312 35.554688 C 35.515625 35.160156 35.601562 34.765625 35.488281 34.316406 C 35.261719 33.46875 34.445312 32.933594 33.597656 32.847656 C 33.117188 32.789062 32.609375 32.875 32.128906 33.042969 C 31.734375 33.15625 31.3125 33.441406 31.058594 32.988281 C 30.859375 32.648438 30.773438 32.253906 30.550781 31.945312 C 30.324219 31.578125 30.070312 31.265625 29.730469 30.984375 C 28.179688 29.65625 25.921875 29.742188 24.253906 30.84375 C 23.492188 31.351562 22.84375 31.972656 22.308594 32.675781 C 22.136719 32.902344 21.941406 33.15625 21.800781 33.410156 L 21.914062 32.820312 C 21.996094 32.339844 22.027344 31.886719 21.996094 31.40625 C 21.96875 31.070312 21.914062 30.589844 21.546875 30.25 C 21.320312 30.054688 21.066406 29.96875 20.839844 29.910156 C 20.753906 29.882812 20.671875 29.855469 20.613281 29.828125 C 20.191406 29.65625 19.878906 29.234375 19.851562 28.8125 L 19.851562 28.78125 C 19.851562 28.671875 19.824219 28.5 19.738281 28.332031 C 19.625 28.132812 19.429688 28.019531 19.203125 28.019531 C 18.921875 28.019531 18.609375 28.160156 18.414062 28.417969 C 18.328125 28.527344 18.273438 28.671875 18.214844 28.78125 C 18.160156 28.894531 18.101562 29.007812 18.046875 29.066406 C 17.960938 29.148438 17.847656 29.121094 17.765625 29.121094 C 17.59375 29.09375 17.453125 28.980469 17.398438 28.839844 C 17.257812 28.5 17.425781 28.078125 17.679688 27.824219 C 17.988281 27.484375 18.441406 27.289062 18.863281 27.089844 L 20.472656 26.355469 C 20.839844 26.1875 21.234375 26.015625 21.574219 25.679688 C 22.195312 25.058594 22.308594 24.238281 22.421875 23.449219 C 22.503906 22.941406 22.5625 22.433594 22.757812 22.039062 C 23.183594 21.164062 24.199219 20.683594 25.1875 20.203125 L 25.269531 20.175781 C 25.46875 20.089844 25.777344 19.921875 25.976562 19.636719 C 26.203125 19.300781 26.230469 18.765625 25.835938 18.453125 C 25.777344 18.425781 25.75 18.398438 25.695312 18.367188 C 25.890625 18.339844 26.089844 18.339844 26.316406 18.339844 C 26.683594 18.339844 27.078125 18.339844 27.472656 18.226562 C 27.753906 18.144531 27.953125 18 28.066406 17.804688 C 28.320312 17.4375 28.234375 16.957031 27.867188 16.394531 C 27.445312 15.742188 26.964844 15.09375 26.484375 14.472656 C 26.316406 14.277344 26.144531 14.050781 25.890625 13.9375 C 25.582031 13.769531 25.214844 13.710938 24.792969 13.769531 C 24 13.882812 23.210938 14.359375 22.589844 15.121094 C 22.195312 15.601562 21.914062 16.109375 21.628906 16.648438 C 21.488281 16.308594 21.488281 15.914062 21.574219 15.574219 C 21.660156 15.152344 21.882812 14.726562 22.082031 14.304688 C 22.167969 14.105469 22.28125 13.910156 22.363281 13.738281 C 22.421875 13.628906 22.535156 13.375 22.421875 13.089844 C 22.335938 12.863281 22.109375 12.722656 22.054688 12.667969 C 21.292969 12.1875 20.246094 12.160156 19.257812 12.527344 C 21.207031 11.371094 23.351562 10.523438 25.609375 10.070312 C 25.46875 10.71875 25.695312 11.144531 25.921875 11.398438 C 26.230469 11.707031 26.625 11.792969 26.964844 11.878906 C 27.105469 11.90625 27.273438 11.933594 27.386719 11.988281 C 27.839844 12.160156 28.121094 12.609375 28.320312 12.921875 C 28.460938 13.175781 28.574219 13.429688 28.6875 13.710938 C 28.769531 13.9375 28.882812 14.164062 28.996094 14.390625 C 29.449219 15.292969 30.125 15.800781 30.859375 15.800781 C 30.886719 15.800781 30.945312 15.800781 30.972656 15.800781 C 31.199219 15.773438 31.367188 15.714844 31.480469 15.574219 C 31.621094 15.40625 31.648438 15.207031 31.648438 15.121094 C 31.648438 15.011719 31.679688 14.867188 31.679688 14.757812 C 31.679688 14.417969 31.707031 14.105469 31.847656 13.882812 C 31.988281 13.710938 32.269531 13.597656 32.554688 13.515625 C 32.636719 13.484375 32.695312 13.457031 32.777344 13.429688 C 33.765625 13.0625 34.585938 12.300781 35.066406 11.339844 C 35.207031 11.058594 35.289062 10.777344 35.375 10.464844 C 36.984375 10.945312 38.535156 11.59375 39.945312 12.414062 C 39.4375 12.835938 39.074219 13.457031 39.296875 14.164062 C 39.636719 15.121094 40.738281 15.265625 41.613281 15.234375 C 41.839844 15.234375 42.0625 15.207031 42.289062 15.234375 C 42.316406 15.234375 42.375 15.265625 42.402344 15.265625 C 42.375 15.265625 42.347656 15.292969 42.316406 15.320312 C 41.839844 15.519531 41.1875 15.460938 40.679688 15.460938 C 39.777344 15.460938 38.816406 15.519531 38.085938 16.109375 C 37.71875 16.421875 37.378906 17.015625 37.914062 17.351562 C 38.199219 17.523438 38.816406 17.464844 39.074219 17.71875 C 38.875 17.777344 38.621094 17.777344 38.480469 17.777344 C 38.167969 17.804688 37.832031 17.859375 37.578125 18.058594 C 36.957031 18.507812 37.039062 19.355469 37.464844 19.894531 C 38.339844 21.023438 40.230469 20.738281 40.90625 19.554688 C 41.046875 19.300781 41.132812 18.90625 41.386719 18.734375 C 41.726562 18.480469 42.175781 18.847656 42.429688 19.074219 C 42.714844 19.328125 42.96875 19.609375 43.304688 19.78125 C 43.699219 20.003906 44.152344 20.035156 44.574219 19.976562 C 44.972656 19.921875 45.394531 19.78125 45.816406 19.863281 C 46.210938 19.949219 46.382812 20.257812 46.183594 20.625 C 45.734375 21.445312 44.6875 20.738281 44.097656 20.542969 C 43.222656 20.230469 42.289062 20.34375 41.414062 20.542969 C 40.597656 20.710938 39.664062 20.910156 39.015625 21.445312 C 37.660156 22.546875 37.6875 24.746094 38 26.300781 C 38.253906 27.710938 38.789062 29.320312 40.058594 30.136719 C 40.765625 30.589844 41.613281 30.644531 42.429688 30.503906 C 43.191406 30.390625 44.152344 30.023438 44.914062 30.277344 C 45.421875 30.476562 45.140625 30.957031 45.226562 31.378906 C 45.308594 31.773438 45.59375 32.027344 45.875 32.28125 C 46.210938 32.566406 46.410156 32.847656 46.464844 33.296875 C 46.523438 33.722656 46.496094 34.171875 46.496094 34.625 C 46.550781 36.261719 46.890625 37.984375 47.960938 39.28125 C 44.660156 45.828125 37.746094 50.429688 29.785156 50.429688 Z M 34.527344 38.492188 C 34.640625 39.421875 34.273438 40.15625 33.683594 40.863281 C 33.117188 41.539062 32.410156 42.132812 31.902344 42.867188 C 31.367188 43.628906 31.425781 44.585938 31.621094 45.460938 C 31.820312 46.367188 32.214844 47.210938 32.582031 48.058594 C 32.609375 48.117188 32.664062 48.199219 32.664062 48.257812 C 32.664062 48.285156 32.664062 48.3125 32.664062 48.3125 C 32.664062 48.3125 32.636719 48.3125 32.609375 48.3125 C 32.46875 48.371094 32.1875 48.3125 32.015625 48.3125 C 31.566406 48.3125 31.113281 48.285156 30.660156 48.171875 C 28.941406 47.804688 27.8125 46.054688 27.21875 44.503906 C 26.851562 43.542969 26.765625 42.527344 26.542969 41.511719 C 26.34375 40.582031 25.863281 39.789062 25.242188 39.085938 C 24.085938 37.730469 22.195312 36.375 22.390625 34.371094 C 22.421875 33.976562 22.789062 33.441406 23.070312 33.101562 C 23.492188 32.535156 24.03125 32.027344 24.621094 31.605469 C 25.890625 30.703125 27.640625 30.390625 28.996094 31.324219 C 29.617188 31.746094 29.984375 32.367188 30.265625 33.042969 C 30.578125 33.777344 31.140625 34.203125 31.960938 33.949219 C 32.75 33.722656 33.738281 33.328125 34.445312 34.003906 C 34.667969 34.230469 34.8125 34.539062 34.753906 34.851562 C 34.699219 35.046875 34.585938 35.21875 34.5 35.414062 C 34.386719 35.640625 34.332031 35.867188 34.273438 36.09375 C 34.132812 36.910156 34.414062 37.671875 34.527344 38.492188 Z M 34.527344 38.492188 " fill-opacity="1" fill-rule="nonzero"/></g></svg>