<svg xmlns="http://www.w3.org/2000/svg" xmlns:xlink="http://www.w3.org/1999/xlink" width="80" zoomAndPan="magnify" viewBox="0 0 60 60" height="80" preserveAspectRatio="xMidYMid meet" version="1.0"><defs><clipPath id="18f625dcf6"><path d="M 2.605469 2.605469 L 57.355469 2.605469 L 57.355469 57.355469 L 2.605469 57.355469 Z M 2.605469 2.605469 " clip-rule="nonzero"/></clipPath></defs><g clip-path="url(#18f625dcf6)"><path fill="#162b53" d="M 57.390625 30 C 57.390625 30.894531 57.347656 31.789062 57.257812 32.683594 C 57.171875 33.574219 57.039062 34.460938 56.863281 35.34375 C 56.6875 36.222656 56.472656 37.089844 56.210938 37.949219 C 55.949219 38.808594 55.648438 39.652344 55.304688 40.480469 C 54.960938 41.308594 54.578125 42.121094 54.15625 42.910156 C 53.734375 43.703125 53.273438 44.472656 52.773438 45.214844 C 52.277344 45.960938 51.742188 46.683594 51.171875 47.375 C 50.605469 48.070312 50.003906 48.734375 49.367188 49.367188 C 48.734375 50.003906 48.070312 50.605469 47.375 51.171875 C 46.683594 51.742188 45.960938 52.277344 45.214844 52.773438 C 44.472656 53.273438 43.703125 53.734375 42.910156 54.15625 C 42.121094 54.578125 41.308594 54.960938 40.480469 55.304688 C 39.652344 55.648438 38.808594 55.949219 37.949219 56.210938 C 37.089844 56.472656 36.222656 56.6875 35.34375 56.863281 C 34.460938 57.039062 33.574219 57.171875 32.683594 57.257812 C 31.789062 57.347656 30.894531 57.390625 30 57.390625 C 29.101562 57.390625 28.207031 57.347656 27.3125 57.257812 C 26.421875 57.171875 25.535156 57.039062 24.652344 56.863281 C 23.773438 56.6875 22.90625 56.472656 22.046875 56.210938 C 21.1875 55.949219 20.34375 55.648438 19.515625 55.304688 C 18.6875 54.960938 17.875 54.578125 17.085938 54.15625 C 16.292969 53.734375 15.527344 53.273438 14.78125 52.773438 C 14.035156 52.277344 13.3125 51.742188 12.621094 51.171875 C 11.925781 50.605469 11.261719 50.003906 10.628906 49.367188 C 9.996094 48.734375 9.390625 48.070312 8.824219 47.375 C 8.253906 46.683594 7.71875 45.960938 7.222656 45.214844 C 6.722656 44.472656 6.261719 43.703125 5.839844 42.910156 C 5.417969 42.121094 5.035156 41.308594 4.691406 40.480469 C 4.347656 39.652344 4.046875 38.808594 3.785156 37.949219 C 3.523438 37.089844 3.308594 36.222656 3.132812 35.34375 C 2.957031 34.460938 2.824219 33.574219 2.738281 32.683594 C 2.648438 31.789062 2.605469 30.894531 2.605469 30 C 2.605469 29.101562 2.648438 28.207031 2.738281 27.3125 C 2.824219 26.421875 2.957031 25.535156 3.132812 24.652344 C 3.308594 23.773438 3.523438 22.90625 3.785156 22.046875 C 4.046875 21.1875 4.347656 20.34375 4.691406 19.515625 C 5.035156 18.6875 5.417969 17.875 5.839844 17.085938 C 6.261719 16.292969 6.722656 15.527344 7.222656 14.78125 C 7.71875 14.035156 8.253906 13.3125 8.824219 12.621094 C 9.390625 11.925781 9.996094 11.261719 10.628906 10.628906 C 11.261719 9.996094 11.925781 9.394531 12.621094 8.824219 C 13.3125 8.253906 14.035156 7.71875 14.78125 7.222656 C 15.527344 6.722656 16.292969 6.261719 17.085938 5.839844 C 17.875 5.417969 18.6875 5.035156 19.515625 4.691406 C 20.34375 4.347656 21.1875 4.046875 22.046875 3.785156 C 22.90625 3.523438 23.773438 3.308594 24.652344 3.132812 C 25.535156 2.957031 26.421875 2.824219 27.3125 2.738281 C 28.207031 2.648438 29.101562 2.605469 30 2.605469 C 30.894531 2.605469 31.789062 2.648438 32.683594 2.738281 C 33.574219 2.824219 34.460938 2.957031 35.34375 3.132812 C 36.222656 3.308594 37.089844 3.523438 37.949219 3.785156 C 38.808594 4.046875 39.652344 4.347656 40.480469 4.691406 C 41.308594 5.035156 42.121094 5.417969 42.910156 5.839844 C 43.703125 6.261719 44.472656 6.722656 45.214844 7.222656 C 45.960938 7.71875 46.683594 8.253906 47.375 8.824219 C 48.070312 9.394531 48.734375 9.996094 49.367188 10.628906 C 50.003906 11.261719 50.605469 11.925781 51.171875 12.621094 C 51.742188 13.3125 52.277344 14.035156 52.773438 14.78125 C 53.273438 15.527344 53.734375 16.292969 54.15625 17.085938 C 54.578125 17.875 54.960938 18.6875 55.304688 19.515625 C 55.648438 20.34375 55.949219 21.1875 56.210938 22.046875 C 56.472656 22.90625 56.6875 23.773438 56.863281 24.652344 C 57.039062 25.535156 57.171875 26.421875 57.257812 27.3125 C 57.347656 28.207031 57.390625 29.101562 57.390625 30 Z M 57.390625 30 " fill-opacity="1" fill-rule="nonzero"/></g><path fill="#ffffff" d="M 47.53125 27.796875 L 44.914062 29.277344 L 44.640625 28.800781 C 44.640625 28.789062 44.628906 28.789062 44.628906 28.789062 L 40.726562 21.917969 C 40.714844 21.90625 40.714844 21.894531 40.714844 21.882812 L 40.28125 21.117188 L 42.894531 19.632812 Z M 47.53125 27.796875 " fill-opacity="1" fill-rule="nonzero"/><path fill="#ffffff" d="M 19.726562 21.117188 L 15.25 29.003906 C 15.242188 29.015625 15.242188 29.015625 15.242188 29.027344 L 15.09375 29.277344 L 12.476562 27.796875 L 17.113281 19.625 Z M 19.726562 21.117188 " fill-opacity="1" fill-rule="nonzero"/><path fill="#ffffff" d="M 43.625 28.949219 L 40.660156 32.097656 C 38.511719 30.007812 33.742188 25.386719 33.035156 24.644531 C 32.097656 23.664062 31.585938 23.664062 30.96875 23.753906 C 30.921875 23.765625 30.867188 23.765625 30.820312 23.777344 C 30.113281 23.867188 27.679688 25.421875 27.15625 26.117188 C 26.574219 26.894531 25.71875 27.714844 24.929688 27.167969 C 24.246094 26.699219 24.519531 25.980469 25.261719 24.792969 L 25.308594 24.703125 C 25.648438 24.144531 26.621094 22.796875 28.21875 22.144531 C 28.695312 21.953125 29.121094 21.6875 29.53125 21.425781 C 29.542969 21.414062 29.554688 21.414062 29.566406 21.402344 C 29.679688 21.324219 29.804688 21.242188 29.917969 21.164062 C 30.738281 20.605469 31.449219 20.125 32.246094 20.207031 C 33.089844 20.296875 33.980469 20.789062 34.835938 21.265625 C 35.417969 21.585938 36.011719 21.929688 36.617188 22.144531 C 36.8125 22.214844 36.984375 22.28125 37.15625 22.351562 C 38.183594 22.75 38.96875 23.046875 40.066406 22.703125 Z M 43.625 28.949219 " fill-opacity="1" fill-rule="nonzero"/><path fill="#ffffff" d="M 21.347656 32.199219 L 19.75 33.765625 C 19.578125 33.9375 19.347656 34.027344 19.109375 34.015625 C 18.996094 34.015625 18.882812 33.980469 18.765625 33.949219 C 18.652344 33.902344 18.5625 33.832031 18.480469 33.753906 L 18.367188 33.640625 C 18.023438 33.285156 18.035156 32.714844 18.378906 32.371094 L 19.976562 30.808594 C 20.148438 30.636719 20.375 30.558594 20.605469 30.558594 C 20.832031 30.558594 21.074219 30.648438 21.242188 30.832031 L 21.359375 30.945312 C 21.710938 31.289062 21.699219 31.859375 21.347656 32.199219 Z M 21.347656 32.199219 " fill-opacity="1" fill-rule="nonzero"/><path fill="#ffffff" d="M 23.925781 33.878906 L 21.667969 36.070312 C 21.496094 36.242188 21.265625 36.332031 21.027344 36.320312 C 20.914062 36.320312 20.800781 36.285156 20.683594 36.253906 C 20.570312 36.207031 20.480469 36.140625 20.386719 36.058594 L 20.273438 35.945312 C 20.101562 35.773438 20.023438 35.546875 20.023438 35.304688 C 20.023438 35.066406 20.125 34.847656 20.296875 34.679688 L 22.546875 32.476562 C 22.714844 32.304688 22.945312 32.222656 23.171875 32.222656 L 23.183594 32.222656 C 23.425781 32.222656 23.640625 32.328125 23.8125 32.496094 L 23.925781 32.613281 C 24.28125 32.964844 24.269531 33.535156 23.925781 33.878906 Z M 23.925781 33.878906 " fill-opacity="1" fill-rule="nonzero"/><path fill="#ffffff" d="M 26.460938 35.386719 C 26.460938 35.625 26.355469 35.84375 26.1875 36.011719 L 23.9375 38.214844 C 23.765625 38.386719 23.539062 38.46875 23.308594 38.46875 C 23.082031 38.46875 22.84375 38.375 22.671875 38.191406 L 22.554688 38.078125 C 22.214844 37.726562 22.226562 37.15625 22.566406 36.8125 L 24.816406 34.609375 C 24.988281 34.4375 25.214844 34.359375 25.445312 34.359375 C 25.671875 34.359375 25.914062 34.449219 26.082031 34.632812 L 26.199219 34.746094 C 26.378906 34.917969 26.460938 35.144531 26.460938 35.386719 Z M 26.460938 35.386719 " fill-opacity="1" fill-rule="nonzero"/><path fill="#ffffff" d="M 28.421875 37.65625 C 28.421875 37.894531 28.320312 38.113281 28.148438 38.285156 L 26.621094 39.78125 C 26.265625 40.121094 25.695312 40.109375 25.351562 39.769531 L 25.238281 39.652344 C 24.894531 39.300781 24.90625 38.730469 25.25 38.386719 L 26.78125 36.890625 C 27.132812 36.550781 27.703125 36.5625 28.046875 36.902344 L 28.160156 37.015625 C 28.34375 37.1875 28.421875 37.417969 28.421875 37.65625 Z M 28.421875 37.65625 " fill-opacity="1" fill-rule="nonzero"/><path fill="#ffffff" d="M 40.144531 34.425781 C 39.734375 34.835938 39.082031 34.871094 38.636719 34.484375 L 37.976562 33.890625 C 37.964844 33.878906 37.964844 33.878906 37.953125 33.867188 L 33.617188 30.019531 C 33.421875 29.851562 33.113281 29.871094 32.941406 30.066406 C 32.773438 30.261719 32.792969 30.570312 32.988281 30.738281 L 37.335938 34.585938 L 37.441406 34.699219 C 37.738281 35.007812 37.886719 35.429688 37.839844 35.863281 C 37.792969 36.296875 37.578125 36.664062 37.234375 36.902344 C 37.015625 37.050781 36.765625 37.132812 36.515625 37.132812 C 36.160156 37.132812 35.832031 36.996094 35.578125 36.730469 L 35.464844 36.617188 C 35.417969 36.5625 35.375 36.503906 35.316406 36.457031 L 33.949219 35.101562 L 33.914062 35.066406 L 31.503906 32.625 C 31.320312 32.429688 31.015625 32.429688 30.832031 32.613281 C 30.636719 32.792969 30.636719 33.101562 30.820312 33.285156 L 33.226562 35.726562 L 33.296875 35.796875 L 34.734375 37.257812 C 34.90625 37.472656 34.984375 37.757812 34.984375 38.035156 C 34.972656 38.375 34.824219 38.683594 34.5625 38.902344 C 34.3125 39.117188 34.003906 39.21875 33.683594 39.1875 C 33.363281 39.164062 33.070312 39.015625 32.863281 38.765625 L 32.246094 38.035156 L 30.078125 35.476562 C 29.90625 35.269531 29.597656 35.25 29.40625 35.417969 C 29.199219 35.589844 29.175781 35.898438 29.347656 36.09375 L 31.503906 38.636719 L 31.765625 38.957031 C 31.9375 39.175781 32.019531 39.460938 31.960938 39.734375 C 31.914062 40.007812 31.734375 40.246094 31.480469 40.394531 C 31.152344 40.589844 30.730469 40.542969 30.433594 40.316406 L 28.777344 39.027344 L 28.84375 38.957031 C 29.199219 38.617188 29.40625 38.148438 29.40625 37.65625 C 29.417969 37.15625 29.222656 36.699219 28.878906 36.34375 L 28.765625 36.230469 C 28.390625 35.851562 27.898438 35.671875 27.417969 35.671875 C 27.429688 35.578125 27.441406 35.476562 27.441406 35.386719 C 27.453125 34.882812 27.257812 34.425781 26.917969 34.074219 L 26.800781 33.957031 C 26.355469 33.503906 25.742188 33.332031 25.160156 33.433594 C 25.214844 32.898438 25.042969 32.347656 24.644531 31.9375 L 24.53125 31.824219 C 24.1875 31.46875 23.722656 31.277344 23.230469 31.265625 C 23.011719 31.265625 22.796875 31.300781 22.589844 31.378906 C 22.554688 30.96875 22.375 30.582031 22.078125 30.261719 L 21.964844 30.148438 C 21.242188 29.417969 20.078125 29.40625 19.347656 30.113281 L 18.207031 31.230469 L 16.269531 29.164062 L 20.433594 21.835938 C 20.730469 21.929688 21.152344 22.007812 21.675781 22.007812 C 22.179688 22.007812 22.785156 21.929688 23.445312 21.6875 L 23.480469 21.675781 C 25.042969 21.128906 26.789062 20.511719 28.332031 21.039062 C 28.195312 21.105469 28.046875 21.1875 27.898438 21.242188 C 26.050781 21.996094 24.929688 23.550781 24.542969 24.175781 L 24.496094 24.269531 C 23.972656 25.113281 22.875 26.871094 24.441406 27.933594 C 25.523438 28.675781 26.8125 28.21875 27.976562 26.664062 C 28.410156 26.09375 30.582031 24.769531 30.992188 24.703125 C 31.046875 24.691406 31.105469 24.691406 31.164062 24.679688 C 31.527344 24.621094 31.734375 24.589844 32.394531 25.285156 C 33.113281 26.050781 38.066406 30.84375 40.15625 32.875 C 40.214844 32.921875 40.257812 32.988281 40.304688 33.046875 C 40.542969 33.480469 40.511719 34.0625 40.144531 34.425781 Z M 40.144531 34.425781 " fill-opacity="1" fill-rule="nonzero"/></svg>