<svg xmlns="http://www.w3.org/2000/svg" xmlns:xlink="http://www.w3.org/1999/xlink" width="80" zoomAndPan="magnify" viewBox="0 0 60 60" height="80" preserveAspectRatio="xMidYMid meet" version="1.0"><defs><clipPath id="296208a524"><path d="M 2.351562 2.351562 L 57.851562 2.351562 L 57.851562 57.851562 L 2.351562 57.851562 Z M 2.351562 2.351562 " clip-rule="nonzero"/></clipPath></defs><g clip-path="url(#296208a524)"><path fill="#162b53" d="M 29.992188 57.648438 C 45.21875 57.648438 57.636719 45.230469 57.636719 30.003906 C 57.636719 14.777344 45.21875 2.359375 29.992188 2.359375 C 14.769531 2.359375 2.347656 14.777344 2.347656 30.003906 C 2.347656 45.230469 14.769531 57.648438 29.992188 57.648438 Z M 29.992188 57.648438 " fill-opacity="1" fill-rule="evenodd"/></g><path fill="#ffffff" d="M 45.933594 46.007812 L 13.027344 46.007812 L 13.027344 47.507812 L 45.933594 47.507812 Z M 33.355469 17.167969 L 15.222656 17.167969 L 15.222656 37.902344 L 33.355469 37.902344 Z M 14.359375 16.195312 L 34.214844 16.195312 L 34.214844 14.386719 L 14.359375 14.386719 Z M 20.6875 45.027344 L 20.6875 40.519531 C 20.6875 40.253906 20.90625 40.035156 21.175781 40.035156 L 27.402344 40.035156 C 27.671875 40.035156 27.890625 40.253906 27.890625 40.519531 L 27.890625 45.027344 L 34.6875 45.027344 L 34.6875 38.878906 L 13.890625 38.878906 L 13.890625 45.027344 Z M 23.796875 45.027344 L 23.796875 41.011719 L 21.664062 41.011719 L 21.664062 45.027344 Z M 24.777344 41.011719 L 24.777344 45.027344 L 26.914062 45.027344 L 26.914062 41.011719 Z M 25.5625 19.726562 L 23.015625 19.726562 L 23.015625 22.277344 L 25.5625 22.277344 Z M 22.527344 18.75 L 26.050781 18.75 C 26.320312 18.75 26.539062 18.96875 26.539062 19.238281 L 26.539062 22.765625 C 26.539062 23.035156 26.320312 23.253906 26.050781 23.253906 L 22.527344 23.253906 C 22.253906 23.253906 22.035156 23.035156 22.035156 22.765625 L 22.035156 19.238281 C 22.035156 18.96875 22.253906 18.75 22.527344 18.75 Z M 31.425781 19.726562 L 28.875 19.726562 L 28.875 22.277344 L 31.425781 22.277344 Z M 28.386719 18.75 L 31.910156 18.75 C 32.183594 18.75 32.402344 18.96875 32.402344 19.238281 L 32.402344 22.765625 C 32.402344 23.035156 32.183594 23.253906 31.910156 23.253906 L 28.386719 23.253906 C 28.117188 23.253906 27.898438 23.035156 27.898438 22.765625 L 27.898438 19.238281 C 27.898438 18.96875 28.117188 18.75 28.386719 18.75 Z M 25.5625 26.261719 L 23.015625 26.261719 L 23.015625 28.808594 L 25.5625 28.808594 Z M 22.527344 25.28125 L 26.050781 25.28125 C 26.320312 25.28125 26.539062 25.5 26.539062 25.773438 L 26.539062 29.296875 C 26.539062 29.570312 26.320312 29.789062 26.050781 29.789062 L 22.527344 29.789062 C 22.253906 29.789062 22.035156 29.570312 22.035156 29.296875 L 22.035156 25.773438 C 22.035156 25.5 22.253906 25.28125 22.527344 25.28125 Z M 31.425781 26.261719 L 28.875 26.261719 L 28.875 28.808594 L 31.425781 28.808594 Z M 28.386719 25.28125 L 31.910156 25.28125 C 32.183594 25.28125 32.402344 25.5 32.402344 25.773438 L 32.402344 29.296875 C 32.402344 29.570312 32.183594 29.789062 31.910156 29.789062 L 28.386719 29.789062 C 28.117188 29.789062 27.898438 29.570312 27.898438 29.296875 L 27.898438 25.773438 C 27.898438 25.5 28.117188 25.28125 28.386719 25.28125 Z M 19.699219 26.261719 L 17.15625 26.261719 L 17.15625 28.808594 L 19.699219 28.808594 Z M 16.664062 25.28125 L 20.191406 25.28125 C 20.460938 25.28125 20.679688 25.5 20.679688 25.773438 L 20.679688 29.296875 C 20.679688 29.570312 20.460938 29.789062 20.191406 29.789062 L 16.664062 29.789062 C 16.394531 29.789062 16.175781 29.570312 16.175781 29.296875 L 16.175781 25.773438 C 16.175781 25.5 16.394531 25.28125 16.664062 25.28125 Z M 25.5625 32.796875 L 23.015625 32.796875 L 23.015625 35.34375 L 25.5625 35.34375 Z M 22.527344 31.816406 L 26.050781 31.816406 C 26.320312 31.816406 26.539062 32.035156 26.539062 32.304688 L 26.539062 35.832031 C 26.539062 36.101562 26.320312 36.320312 26.050781 36.320312 L 22.527344 36.320312 C 22.253906 36.320312 22.035156 36.101562 22.035156 35.832031 L 22.035156 32.304688 C 22.035156 32.035156 22.253906 31.816406 22.527344 31.816406 Z M 31.425781 32.796875 L 28.875 32.796875 L 28.875 35.34375 L 31.425781 35.34375 Z M 28.386719 31.816406 L 31.910156 31.816406 C 32.183594 31.816406 32.402344 32.035156 32.402344 32.304688 L 32.402344 35.832031 C 32.402344 36.101562 32.183594 36.320312 31.910156 36.320312 L 28.386719 36.320312 C 28.117188 36.320312 27.898438 36.101562 27.898438 35.832031 L 27.898438 32.304688 C 27.898438 32.035156 28.117188 31.816406 28.386719 31.816406 Z M 19.699219 32.796875 L 17.15625 32.796875 L 17.15625 35.34375 L 19.699219 35.34375 Z M 16.664062 31.816406 L 20.191406 31.816406 C 20.460938 31.816406 20.679688 32.035156 20.679688 32.304688 L 20.679688 35.832031 C 20.679688 36.101562 20.460938 36.320312 20.191406 36.320312 L 16.664062 36.320312 C 16.394531 36.320312 16.175781 36.101562 16.175781 35.832031 L 16.175781 32.304688 C 16.175781 32.035156 16.394531 31.816406 16.664062 31.816406 Z M 19.699219 19.726562 L 17.15625 19.726562 L 17.15625 22.277344 L 19.699219 22.277344 Z M 16.664062 18.75 L 20.191406 18.75 C 20.460938 18.75 20.679688 18.96875 20.679688 19.238281 L 20.679688 22.765625 C 20.679688 23.035156 20.460938 23.253906 20.191406 23.253906 L 16.664062 23.253906 C 16.394531 23.253906 16.175781 23.035156 16.175781 22.765625 L 16.175781 19.238281 C 16.175781 18.96875 16.394531 18.75 16.664062 18.75 Z M 15.492188 43.753906 C 15.222656 43.753906 15.003906 43.535156 15.003906 43.265625 C 15.003906 42.992188 15.222656 42.773438 15.492188 42.773438 L 18.855469 42.773438 C 19.121094 42.773438 19.339844 42.992188 19.339844 43.265625 C 19.339844 43.535156 19.121094 43.753906 18.855469 43.753906 Z M 29.722656 43.753906 C 29.453125 43.753906 29.234375 43.535156 29.234375 43.265625 C 29.234375 42.992188 29.453125 42.773438 29.722656 42.773438 L 33.089844 42.773438 C 33.355469 42.773438 33.574219 42.992188 33.574219 43.265625 C 33.574219 43.535156 33.355469 43.753906 33.089844 43.753906 Z M 29.722656 41.011719 C 29.453125 41.011719 29.234375 40.792969 29.234375 40.523438 C 29.234375 40.253906 29.453125 40.035156 29.722656 40.035156 L 33.089844 40.035156 C 33.355469 40.035156 33.574219 40.253906 33.574219 40.523438 C 33.574219 40.792969 33.355469 41.011719 33.089844 41.011719 Z M 15.492188 41.011719 C 15.222656 41.011719 15.003906 40.792969 15.003906 40.523438 C 15.003906 40.253906 15.222656 40.035156 15.492188 40.035156 L 18.855469 40.035156 C 19.121094 40.035156 19.339844 40.253906 19.339844 40.523438 C 19.339844 40.792969 19.121094 41.011719 18.855469 41.011719 Z M 46.144531 13.351562 C 44.089844 11.300781 40.761719 11.300781 38.707031 13.351562 C 37.757812 14.304688 37.171875 15.617188 37.171875 17.074219 C 37.171875 19.75 40.453125 23.25 42.425781 25.492188 C 44.496094 23.144531 47.6875 19.730469 47.6875 17.074219 C 47.6875 15.617188 47.097656 14.300781 46.144531 13.351562 Z M 44.351562 24.78125 L 42.796875 26.550781 C 42.597656 26.78125 42.246094 26.777344 42.054688 26.546875 C 41.273438 25.628906 40.6875 25.003906 39.890625 24.074219 L 34.335938 24.074219 L 34.335938 37.902344 L 35.175781 37.902344 C 35.445312 37.902344 35.664062 38.121094 35.664062 38.390625 L 35.664062 45.027344 L 44.351562 45.027344 Z M 44.027344 15.441406 C 42.605469 14.027344 40.167969 15.035156 40.167969 17.039062 C 40.167969 19.046875 42.605469 20.054688 44.027344 18.640625 C 44.90625 17.753906 44.90625 16.324219 44.027344 15.441406 Z M 42.425781 13.804688 C 44.214844 13.804688 45.664062 15.253906 45.664062 17.039062 C 45.664062 18.828125 44.214844 20.277344 42.425781 20.277344 C 40.640625 20.277344 39.191406 18.828125 39.191406 17.039062 C 39.191406 15.253906 40.640625 13.804688 42.425781 13.804688 Z M 37.117188 29.445312 C 37.117188 29.179688 37.335938 28.960938 37.605469 28.960938 C 37.875 28.960938 38.09375 29.179688 38.09375 29.445312 L 38.09375 35.675781 C 38.09375 35.945312 37.875 36.164062 37.605469 36.164062 C 37.335938 36.164062 37.117188 35.945312 37.117188 35.675781 Z M 40.59375 30.21875 C 40.59375 29.949219 40.8125 29.730469 41.085938 29.730469 C 41.351562 29.730469 41.570312 29.949219 41.570312 30.21875 L 41.570312 41.855469 C 41.570312 42.128906 41.351562 42.347656 41.085938 42.347656 C 40.8125 42.347656 40.59375 42.128906 40.59375 41.855469 Z M 40.59375 30.21875 " fill-opacity="1" fill-rule="nonzero"/></svg>