<svg xmlns="http://www.w3.org/2000/svg" xmlns:xlink="http://www.w3.org/1999/xlink" width="80" zoomAndPan="magnify" viewBox="0 0 60 60" height="80" preserveAspectRatio="xMidYMid meet" version="1.0"><defs><clipPath id="47dc5d6b64"><path d="M 2.605469 2.605469 L 57.355469 2.605469 L 57.355469 57.355469 L 2.605469 57.355469 Z M 2.605469 2.605469 " clip-rule="nonzero"/></clipPath><clipPath id="9c8c57fc13"><path d="M 12.507812 12.824219 L 47.757812 12.824219 L 47.757812 47.324219 L 12.507812 47.324219 Z M 12.507812 12.824219 " clip-rule="nonzero"/></clipPath></defs><path fill="#162b53" d="M 56.191406 30 C 56.191406 30.855469 56.148438 31.710938 56.066406 32.566406 C 55.980469 33.417969 55.855469 34.265625 55.6875 35.109375 C 55.523438 35.949219 55.3125 36.78125 55.0625 37.601562 C 54.816406 38.421875 54.527344 39.230469 54.199219 40.023438 C 53.871094 40.816406 53.503906 41.589844 53.097656 42.347656 C 52.695312 43.101562 52.253906 43.835938 51.777344 44.550781 C 51.300781 45.265625 50.789062 45.953125 50.246094 46.617188 C 49.703125 47.277344 49.125 47.914062 48.519531 48.519531 C 47.914062 49.125 47.277344 49.703125 46.617188 50.246094 C 45.953125 50.789062 45.265625 51.300781 44.550781 51.777344 C 43.835938 52.253906 43.101562 52.695312 42.347656 53.097656 C 41.589844 53.503906 40.816406 53.871094 40.023438 54.199219 C 39.230469 54.527344 38.421875 54.816406 37.601562 55.0625 C 36.78125 55.3125 35.949219 55.523438 35.109375 55.6875 C 34.265625 55.855469 33.417969 55.980469 32.566406 56.066406 C 31.710938 56.148438 30.855469 56.191406 30 56.191406 C 29.140625 56.191406 28.285156 56.148438 27.429688 56.066406 C 26.578125 55.980469 25.730469 55.855469 24.886719 55.6875 C 24.046875 55.523438 23.214844 55.3125 22.394531 55.0625 C 21.574219 54.816406 20.765625 54.527344 19.972656 54.199219 C 19.179688 53.871094 18.40625 53.503906 17.648438 53.097656 C 16.894531 52.695312 16.160156 52.253906 15.445312 51.777344 C 14.730469 51.300781 14.042969 50.789062 13.378906 50.246094 C 12.71875 49.703125 12.082031 49.125 11.476562 48.519531 C 10.871094 47.914062 10.292969 47.277344 9.75 46.617188 C 9.207031 45.953125 8.695312 45.265625 8.21875 44.550781 C 7.742188 43.835938 7.300781 43.101562 6.898438 42.347656 C 6.492188 41.589844 6.125 40.816406 5.796875 40.023438 C 5.46875 39.230469 5.179688 38.421875 4.933594 37.601562 C 4.683594 36.78125 4.476562 35.949219 4.308594 35.109375 C 4.140625 34.265625 4.015625 33.417969 3.929688 32.566406 C 3.847656 31.710938 3.804688 30.855469 3.804688 30 C 3.804688 29.140625 3.847656 28.285156 3.929688 27.429688 C 4.015625 26.578125 4.140625 25.730469 4.308594 24.886719 C 4.476562 24.046875 4.683594 23.214844 4.933594 22.394531 C 5.179688 21.574219 5.46875 20.765625 5.796875 19.972656 C 6.125 19.179688 6.492188 18.40625 6.898438 17.648438 C 7.300781 16.894531 7.742188 16.160156 8.21875 15.445312 C 8.695312 14.730469 9.207031 14.042969 9.75 13.378906 C 10.292969 12.71875 10.871094 12.082031 11.476562 11.476562 C 12.082031 10.871094 12.71875 10.292969 13.378906 9.75 C 14.042969 9.207031 14.730469 8.695312 15.445312 8.21875 C 16.160156 7.742188 16.894531 7.300781 17.648438 6.898438 C 18.40625 6.492188 19.179688 6.125 19.972656 5.796875 C 20.765625 5.46875 21.574219 5.179688 22.394531 4.933594 C 23.214844 4.683594 24.046875 4.476562 24.886719 4.308594 C 25.730469 4.140625 26.578125 4.015625 27.429688 3.929688 C 28.285156 3.847656 29.140625 3.804688 30 3.804688 C 30.855469 3.804688 31.710938 3.847656 32.566406 3.929688 C 33.417969 4.015625 34.265625 4.140625 35.109375 4.308594 C 35.949219 4.476562 36.78125 4.683594 37.601562 4.933594 C 38.421875 5.179688 39.230469 5.46875 40.023438 5.796875 C 40.816406 6.125 41.589844 6.492188 42.347656 6.898438 C 43.101562 7.300781 43.835938 7.742188 44.550781 8.21875 C 45.265625 8.695312 45.953125 9.207031 46.617188 9.75 C 47.277344 10.292969 47.914062 10.871094 48.519531 11.476562 C 49.125 12.082031 49.703125 12.71875 50.246094 13.378906 C 50.789062 14.042969 51.300781 14.730469 51.777344 15.445312 C 52.253906 16.160156 52.695312 16.894531 53.097656 17.648438 C 53.503906 18.40625 53.871094 19.179688 54.199219 19.972656 C 54.527344 20.765625 54.816406 21.574219 55.0625 22.394531 C 55.3125 23.214844 55.523438 24.046875 55.6875 24.886719 C 55.855469 25.730469 55.980469 26.578125 56.066406 27.429688 C 56.148438 28.285156 56.191406 29.140625 56.191406 30 Z M 56.191406 30 " fill-opacity="1" fill-rule="nonzero"/><g clip-path="url(#47dc5d6b64)"><path fill="#162b53" d="M 30 57.390625 C 14.933594 57.390625 2.605469 45.0625 2.605469 30 C 2.605469 14.933594 14.933594 2.605469 30 2.605469 C 45.0625 2.605469 57.390625 14.933594 57.390625 30 C 57.390625 45.0625 45.0625 57.390625 30 57.390625 Z M 30 5.171875 C 16.300781 5.171875 5.171875 16.300781 5.171875 30 C 5.171875 43.695312 16.300781 54.824219 30 54.824219 C 43.695312 54.824219 54.824219 43.695312 54.824219 30 C 54.824219 16.300781 43.695312 5.171875 30 5.171875 Z M 30 5.171875 " fill-opacity="1" fill-rule="nonzero"/></g><g clip-path="url(#9c8c57fc13)"><path fill="#ffc62f" d="M 45.875 18.425781 L 37.828125 16.269531 L 37.828125 14.539062 C 37.824219 14.3125 37.78125 14.09375 37.695312 13.882812 C 37.605469 13.675781 37.484375 13.488281 37.324219 13.328125 C 37.164062 13.167969 36.976562 13.042969 36.765625 12.957031 C 36.558594 12.871094 36.339844 12.824219 36.113281 12.824219 L 18.394531 12.824219 C 18.25 12.824219 18.125 12.871094 18.019531 12.96875 L 12.875 17.539062 C 12.742188 17.652344 12.679688 17.796875 12.679688 17.96875 L 12.679688 40.828125 C 12.679688 41.054688 12.726562 41.273438 12.8125 41.484375 C 12.898438 41.695312 13.023438 41.878906 13.183594 42.039062 C 13.34375 42.199219 13.53125 42.324219 13.738281 42.410156 C 13.949219 42.5 14.167969 42.542969 14.394531 42.542969 L 21.050781 42.542969 L 38.1875 47.136719 C 38.328125 47.175781 38.472656 47.191406 38.621094 47.195312 C 39.011719 47.195312 39.359375 47.078125 39.667969 46.839844 C 39.980469 46.605469 40.183594 46.296875 40.285156 45.921875 L 47.089844 20.523438 C 47.144531 20.304688 47.160156 20.082031 47.128906 19.855469 C 47.097656 19.632812 47.023438 19.421875 46.910156 19.226562 C 46.796875 19.03125 46.648438 18.863281 46.46875 18.722656 C 46.289062 18.585938 46.089844 18.484375 45.875 18.425781 Z M 17.824219 14.671875 L 17.824219 16.824219 C 17.824219 16.984375 17.769531 17.117188 17.65625 17.230469 C 17.542969 17.339844 17.410156 17.398438 17.253906 17.398438 L 14.753906 17.398438 Z M 14.394531 41.398438 C 14.238281 41.398438 14.101562 41.34375 13.992188 41.234375 C 13.878906 41.121094 13.824219 40.988281 13.824219 40.828125 L 13.824219 18.539062 L 17.253906 18.539062 C 17.480469 18.539062 17.699219 18.496094 17.90625 18.40625 C 18.117188 18.320312 18.300781 18.195312 18.464844 18.035156 C 18.625 17.875 18.746094 17.691406 18.835938 17.480469 C 18.921875 17.269531 18.964844 17.050781 18.964844 16.824219 L 18.964844 13.96875 L 36.113281 13.96875 C 36.269531 13.96875 36.40625 14.023438 36.515625 14.136719 C 36.628906 14.246094 36.683594 14.382812 36.683594 14.539062 L 36.683594 40.828125 C 36.683594 40.988281 36.628906 41.121094 36.515625 41.234375 C 36.40625 41.34375 36.269531 41.398438 36.113281 41.398438 Z M 45.980469 20.230469 L 39.175781 45.628906 C 39.132812 45.78125 39.042969 45.894531 38.910156 45.972656 C 38.773438 46.050781 38.628906 46.070312 38.476562 46.027344 L 25.464844 42.542969 L 36.113281 42.542969 C 36.527344 42.542969 36.890625 42.40625 37.203125 42.136719 L 38.261719 42.421875 L 38.558594 41.3125 L 37.796875 41.113281 C 37.816406 41.019531 37.824219 40.925781 37.828125 40.828125 L 37.828125 39.34375 L 38.996094 39.664062 L 39.296875 38.554688 L 37.828125 38.160156 L 37.828125 36.382812 L 39.742188 36.902344 L 40.039062 35.792969 L 37.828125 35.199219 L 37.828125 33.425781 L 40.476562 34.140625 L 40.777344 33.03125 L 37.828125 32.246094 L 37.828125 30.46875 L 41.222656 31.382812 L 41.519531 30.273438 L 37.828125 29.285156 L 37.828125 27.511719 L 41.957031 28.621094 L 42.253906 27.511719 L 37.828125 26.328125 L 37.828125 24.550781 L 42.703125 25.859375 L 43 24.753906 L 37.828125 23.367188 L 37.828125 21.589844 L 43.4375 23.101562 L 43.734375 21.992188 L 37.828125 20.410156 L 37.828125 17.453125 L 45.574219 19.527344 C 45.730469 19.570312 45.847656 19.65625 45.925781 19.796875 C 46.003906 19.933594 46.023438 20.078125 45.980469 20.230469 Z M 20.679688 16.824219 L 34.96875 16.824219 L 34.96875 17.96875 L 20.679688 17.96875 Z M 20.679688 20.824219 L 15.539062 20.824219 L 15.539062 19.683594 L 20.679688 19.683594 Z M 17.253906 23.683594 L 15.539062 23.683594 L 15.539062 22.539062 L 17.253906 22.539062 Z M 24.109375 19.683594 L 24.109375 20.824219 L 21.824219 20.824219 L 21.824219 19.683594 Z M 25.253906 19.683594 L 34.96875 19.683594 L 34.96875 20.824219 L 25.253906 20.824219 Z M 18.394531 22.539062 L 34.96875 22.539062 L 34.96875 23.683594 L 18.394531 23.683594 Z M 15.539062 25.398438 L 34.96875 25.398438 L 34.96875 26.539062 L 15.539062 26.539062 Z M 23.539062 29.398438 L 15.539062 29.398438 L 15.539062 28.253906 L 23.539062 28.253906 Z M 25.253906 28.253906 L 34.96875 28.253906 L 34.96875 29.398438 L 25.253906 29.398438 Z M 15.539062 31.113281 L 34.96875 31.113281 L 34.96875 32.257812 L 15.539062 32.257812 Z M 26.96875 35.113281 L 15.539062 35.113281 L 15.539062 33.96875 L 26.96875 33.96875 Z M 28.683594 33.96875 L 34.96875 33.96875 L 34.96875 35.113281 L 28.683594 35.113281 Z M 22.96875 36.828125 L 34.96875 36.828125 L 34.96875 37.972656 L 22.96875 37.972656 Z M 22.96875 36.828125 " fill-opacity="1" fill-rule="nonzero"/></g></svg>