<svg xmlns="http://www.w3.org/2000/svg" xmlns:xlink="http://www.w3.org/1999/xlink" width="112" zoomAndPan="magnify" viewBox="0 0 84 83.999999" height="112" preserveAspectRatio="xMidYMid meet" version="1.0"><defs><clipPath id="9449dd5c7b"><path d="M 3.648438 3.648438 L 80.148438 3.648438 L 80.148438 80.148438 L 3.648438 80.148438 Z M 3.648438 3.648438 " clip-rule="nonzero"/></clipPath><clipPath id="28ebc1c12b"><path d="M 16.542969 29 L 54 29 L 54 66 L 16.542969 66 Z M 16.542969 29 " clip-rule="nonzero"/></clipPath><clipPath id="1777604db4"><path d="M 64 38 L 67.542969 38 L 67.542969 42 L 64 42 Z M 64 38 " clip-rule="nonzero"/></clipPath><clipPath id="939f1f8ab5"><path d="M 40 18.1875 L 44 18.1875 L 44 22 L 40 22 Z M 40 18.1875 " clip-rule="nonzero"/></clipPath><clipPath id="51d569d3d4"><path d="M 46 18.1875 L 51 18.1875 L 51 22 L 46 22 Z M 46 18.1875 " clip-rule="nonzero"/></clipPath></defs><rect x="-8.4" width="100.8" fill="#ffffff" y="-8.4" height="100.799999" fill-opacity="1"/><rect x="-8.4" width="100.8" fill="#ffffff" y="-8.4" height="100.799999" fill-opacity="1"/><path fill="#ffc62f" d="M 78.667969 41.996094 C 78.667969 43.199219 78.609375 44.398438 78.492188 45.59375 C 78.375 46.789062 78.199219 47.972656 77.964844 49.152344 C 77.730469 50.328125 77.4375 51.492188 77.089844 52.644531 C 76.742188 53.792969 76.335938 54.921875 75.878906 56.03125 C 75.417969 57.140625 74.90625 58.226562 74.339844 59.285156 C 73.773438 60.34375 73.15625 61.371094 72.488281 62.371094 C 71.820312 63.371094 71.105469 64.332031 70.34375 65.261719 C 69.582031 66.191406 68.777344 67.078125 67.929688 67.929688 C 67.078125 68.777344 66.191406 69.582031 65.261719 70.34375 C 64.332031 71.105469 63.371094 71.820312 62.371094 72.488281 C 61.371094 73.15625 60.34375 73.773438 59.285156 74.339844 C 58.226562 74.90625 57.140625 75.417969 56.03125 75.878906 C 54.921875 76.335938 53.792969 76.742188 52.644531 77.089844 C 51.492188 77.4375 50.328125 77.730469 49.152344 77.964844 C 47.972656 78.199219 46.789062 78.375 45.59375 78.492188 C 44.398438 78.609375 43.199219 78.667969 41.996094 78.667969 C 40.796875 78.667969 39.597656 78.609375 38.402344 78.492188 C 37.207031 78.375 36.019531 78.199219 34.84375 77.964844 C 33.664062 77.730469 32.5 77.4375 31.351562 77.089844 C 30.203125 76.742188 29.074219 76.335938 27.964844 75.878906 C 26.855469 75.417969 25.769531 74.90625 24.710938 74.339844 C 23.652344 73.773438 22.621094 73.15625 21.625 72.488281 C 20.625 71.820312 19.660156 71.105469 18.734375 70.34375 C 17.804688 69.582031 16.914062 68.777344 16.066406 67.929688 C 15.21875 67.078125 14.410156 66.191406 13.648438 65.261719 C 12.886719 64.332031 12.171875 63.371094 11.507812 62.371094 C 10.839844 61.371094 10.222656 60.34375 9.65625 59.285156 C 9.089844 58.226562 8.578125 57.140625 8.117188 56.03125 C 7.65625 54.921875 7.253906 53.792969 6.90625 52.644531 C 6.554688 51.492188 6.265625 50.328125 6.03125 49.152344 C 5.796875 47.972656 5.621094 46.789062 5.503906 45.59375 C 5.382812 44.398438 5.324219 43.199219 5.324219 41.996094 C 5.324219 40.796875 5.382812 39.597656 5.503906 38.402344 C 5.621094 37.207031 5.796875 36.019531 6.03125 34.84375 C 6.265625 33.664062 6.554688 32.5 6.90625 31.351562 C 7.253906 30.203125 7.65625 29.074219 8.117188 27.964844 C 8.578125 26.855469 9.089844 25.769531 9.65625 24.710938 C 10.222656 23.652344 10.839844 22.621094 11.507812 21.625 C 12.171875 20.625 12.886719 19.660156 13.648438 18.734375 C 14.410156 17.804688 15.21875 16.914062 16.066406 16.066406 C 16.914062 15.21875 17.804688 14.410156 18.734375 13.648438 C 19.660156 12.886719 20.625 12.171875 21.625 11.507812 C 22.621094 10.839844 23.652344 10.222656 24.710938 9.65625 C 25.769531 9.089844 26.855469 8.578125 27.964844 8.117188 C 29.074219 7.65625 30.203125 7.253906 31.351562 6.90625 C 32.5 6.554688 33.664062 6.265625 34.84375 6.03125 C 36.019531 5.796875 37.207031 5.621094 38.402344 5.503906 C 39.597656 5.382812 40.796875 5.324219 41.996094 5.324219 C 43.199219 5.324219 44.398438 5.382812 45.59375 5.503906 C 46.789062 5.621094 47.972656 5.796875 49.152344 6.03125 C 50.328125 6.265625 51.492188 6.554688 52.644531 6.90625 C 53.792969 7.253906 54.921875 7.65625 56.03125 8.117188 C 57.140625 8.578125 58.226562 9.089844 59.285156 9.65625 C 60.34375 10.222656 61.371094 10.839844 62.371094 11.507812 C 63.371094 12.171875 64.332031 12.886719 65.261719 13.648438 C 66.191406 14.410156 67.078125 15.21875 67.929688 16.066406 C 68.777344 16.914062 69.582031 17.804688 70.34375 18.734375 C 71.105469 19.660156 71.820312 20.625 72.488281 21.625 C 73.15625 22.621094 73.773438 23.652344 74.339844 24.710938 C 74.90625 25.769531 75.417969 26.855469 75.878906 27.964844 C 76.335938 29.074219 76.742188 30.203125 77.089844 31.351562 C 77.4375 32.5 77.730469 33.664062 77.964844 34.84375 C 78.199219 36.019531 78.375 37.207031 78.492188 38.402344 C 78.609375 39.597656 78.667969 40.796875 78.667969 41.996094 Z M 78.667969 41.996094 " fill-opacity="1" fill-rule="nonzero"/><g clip-path="url(#9449dd5c7b)"><path fill="#ffc62f" d="M 41.996094 80.347656 C 20.90625 80.347656 3.648438 63.089844 3.648438 41.996094 C 3.648438 20.90625 20.90625 3.648438 41.996094 3.648438 C 63.089844 3.648438 80.347656 20.90625 80.347656 41.996094 C 80.347656 63.089844 63.089844 80.347656 41.996094 80.347656 Z M 41.996094 7.242188 C 22.824219 7.242188 7.242188 22.824219 7.242188 41.996094 C 7.242188 61.171875 22.824219 76.75 41.996094 76.75 C 61.171875 76.75 76.75 61.171875 76.75 41.996094 C 76.75 22.824219 61.171875 7.242188 41.996094 7.242188 Z M 41.996094 7.242188 " fill-opacity="1" fill-rule="nonzero"/></g><g clip-path="url(#28ebc1c12b)"><path fill="#162b53" d="M 16.542969 65.105469 C 19.464844 58.0625 22.976562 51.300781 26.277344 44.4375 C 28.46875 39.878906 30.789062 35.382812 33.058594 30.863281 C 33.230469 30.515625 33.433594 30.179688 33.632812 29.84375 C 34.015625 29.195312 34.136719 29.085938 34.859375 29.339844 C 35.976562 29.734375 37.101562 30.144531 38.132812 30.710938 C 41.867188 32.777344 44.875 35.679688 47.394531 39.09375 C 49.304688 41.679688 51.101562 44.339844 52.511719 47.238281 C 53.0625 48.367188 53.558594 49.523438 53.71875 50.789062 C 53.824219 51.65625 53.699219 52 52.914062 52.328125 C 49.878906 53.605469 46.851562 54.898438 43.789062 56.097656 C 39.429688 57.804688 35.046875 59.441406 30.664062 61.09375 C 26.761719 62.566406 22.847656 64.019531 18.9375 65.464844 C 18.507812 65.625 18.058594 65.769531 17.609375 65.804688 C 17.261719 65.835938 16.898438 65.6875 16.542969 65.617188 C 16.542969 65.445312 16.542969 65.277344 16.542969 65.105469 Z M 42.019531 54.929688 C 42.453125 54.753906 42.695312 54.554688 42.691406 54.121094 C 42.6875 53.734375 42.773438 53.34375 42.769531 52.953125 C 42.738281 49.792969 42.773438 46.632812 42.636719 43.476562 C 42.503906 40.527344 41.675781 37.742188 40.230469 35.136719 C 39.054688 33.019531 36.988281 32.070312 35.011719 30.988281 C 34.9375 30.949219 34.683594 31.070312 34.636719 31.171875 C 33.898438 32.808594 33.183594 34.457031 32.453125 36.101562 C 32.328125 36.386719 32.433594 36.53125 32.648438 36.738281 C 33.339844 37.40625 34.109375 38.042969 34.636719 38.832031 C 37.375 42.957031 38.734375 47.550781 39.09375 52.460938 C 39.171875 53.570312 39.25 54.675781 39.328125 55.78125 C 39.871094 55.742188 40.054688 55.496094 40.015625 54.984375 C 39.96875 54.324219 40.003906 53.664062 40.003906 53.023438 C 40.867188 52.753906 41.007812 52.855469 40.9375 53.675781 C 40.894531 54.210938 40.835938 54.742188 40.78125 55.292969 C 41.371094 55.179688 41.425781 55.121094 41.433594 54.652344 C 41.441406 54.363281 41.4375 54.074219 41.4375 53.785156 C 41.4375 53.171875 41.515625 53.109375 42.203125 53.195312 C 42.144531 53.746094 42.085938 54.296875 42.019531 54.929688 Z M 35.832031 54.679688 C 35.722656 55.554688 35.617188 56.382812 35.511719 57.238281 C 36.019531 57.148438 36.199219 56.859375 36.234375 56.445312 C 36.25 56.207031 36.277344 55.972656 36.300781 55.734375 C 36.371094 55.007812 36.441406 54.9375 37.316406 54.84375 C 37.226562 55.441406 37.144531 56.023438 37.050781 56.632812 C 38.632812 56.136719 38.382812 56.398438 38.363281 54.851562 C 38.363281 54.765625 38.339844 54.683594 38.328125 54.597656 C 37.96875 51.996094 37.660156 49.382812 37.238281 46.789062 C 36.757812 43.851562 35.601562 41.195312 33.617188 38.941406 C 33.1875 38.457031 32.679688 38.039062 32.214844 37.59375 C 32.097656 37.703125 32.066406 37.722656 32.050781 37.753906 C 30.871094 40.101562 29.6875 42.449219 28.53125 44.804688 C 28.488281 44.898438 28.636719 45.148438 28.753906 45.257812 C 29.367188 45.8125 30.132812 46.253906 30.59375 46.90625 C 31.359375 47.996094 32.027344 49.179688 32.566406 50.398438 C 33.589844 52.71875 33.511719 55.195312 33.339844 57.664062 C 33.328125 57.820312 33.320312 57.976562 33.308594 58.152344 C 34.480469 57.875 34.707031 57.644531 34.800781 56.679688 C 34.835938 56.308594 34.871094 55.9375 34.894531 55.5625 C 34.949219 54.785156 34.960938 54.765625 35.832031 54.679688 Z M 28.140625 46 C 28.070312 46.0625 28.019531 46.085938 27.996094 46.125 C 26.453125 48.953125 24.910156 51.785156 23.359375 54.613281 C 23.199219 54.90625 23.347656 55.023438 23.5625 55.179688 C 25.042969 56.242188 26.042969 57.632812 26.351562 59.457031 C 26.4375 59.964844 26.445312 60.488281 26.5 61.074219 C 27.070312 60.859375 27.613281 60.71875 27.785156 60.035156 C 27.953125 59.378906 28.175781 58.738281 28.378906 58.089844 C 28.535156 57.578125 28.824219 57.433594 29.410156 57.59375 C 29.175781 58.378906 28.9375 59.164062 28.6875 59.980469 C 29.085938 59.949219 29.289062 59.796875 29.355469 59.4375 C 29.449219 58.953125 29.582031 58.480469 29.699219 58 C 29.878906 57.261719 30.007812 57.191406 30.855469 57.421875 C 30.6875 58.058594 30.515625 58.695312 30.332031 59.378906 C 30.855469 59.210938 31.296875 59.015625 31.757812 58.929688 C 32.351562 58.820312 32.472656 58.441406 32.457031 57.941406 C 32.421875 56.632812 32.417969 55.324219 32.339844 54.019531 C 32.214844 51.917969 31.71875 49.929688 30.421875 48.207031 C 29.78125 47.347656 29.066406 46.5625 28.140625 46 Z M 42.167969 36.371094 C 43.46875 42.347656 44.554688 48.222656 43.484375 54.355469 C 43.875 54.179688 44.199219 54.066406 44.476562 53.886719 C 44.628906 53.789062 44.773438 53.585938 44.804688 53.410156 C 44.929688 52.707031 45.054688 52 45.085938 51.292969 C 45.109375 50.8125 45.332031 50.777344 45.699219 50.796875 C 46.144531 50.820312 46.046875 51.144531 46.015625 51.394531 C 45.945312 51.996094 45.847656 52.589844 45.757812 53.199219 C 46.753906 53.113281 46.851562 53.019531 46.933594 52.09375 C 46.976562 51.640625 47.023438 51.183594 47.0625 50.726562 C 47.113281 50.136719 47.335938 50.011719 47.980469 50.242188 C 47.867188 51 47.753906 51.765625 47.636719 52.535156 C 48.484375 52.523438 48.742188 52.332031 48.75 51.609375 C 48.773438 49.285156 48.777344 46.957031 48.769531 44.628906 C 48.769531 44.40625 48.683594 44.164062 48.578125 43.960938 C 47.644531 42.125 46.402344 40.519531 44.933594 39.085938 C 44.03125 38.199219 43.128906 37.316406 42.167969 36.371094 Z M 21.964844 62.820312 C 22.476562 62.804688 22.714844 62.605469 22.761719 62.148438 C 22.796875 61.8125 22.894531 61.484375 22.972656 61.152344 C 23.113281 60.582031 23.359375 60.472656 23.957031 60.722656 C 23.871094 61.1875 23.78125 61.660156 23.667969 62.261719 C 24.164062 62.058594 24.5625 61.929688 24.929688 61.738281 C 25.566406 61.414062 25.714844 61.117188 25.554688 60.414062 C 25.386719 59.671875 25.210938 58.925781 24.957031 58.210938 C 24.597656 57.199219 23.910156 56.453125 22.867188 55.976562 C 21.425781 58.445312 20.089844 60.914062 19.019531 63.582031 C 19.742188 63.480469 20.464844 63.402344 21.03125 63.058594 C 21.300781 62.894531 21.273438 62.234375 21.375 61.796875 C 21.410156 61.652344 21.417969 61.496094 21.4375 61.34375 C 21.507812 60.726562 21.722656 60.597656 22.394531 60.804688 C 22.257812 61.457031 22.117188 62.113281 21.964844 62.820312 Z M 49.386719 51.917969 C 49.933594 51.988281 50.113281 51.792969 50.121094 51.328125 C 50.125 50.835938 50.214844 50.351562 50.261719 49.859375 C 50.296875 49.492188 50.566406 49.441406 50.851562 49.441406 C 51.1875 49.445312 51.144531 49.710938 51.132812 49.925781 C 51.105469 50.410156 51.0625 50.890625 51.027344 51.386719 C 51.804688 51.277344 52.023438 51.09375 51.828125 50.546875 C 51.324219 49.15625 50.742188 47.792969 50.191406 46.414062 C 50.140625 46.429688 50.085938 46.445312 50.03125 46.460938 C 49.816406 48.269531 49.601562 50.078125 49.386719 51.917969 Z M 49.386719 51.917969 " fill-opacity="1" fill-rule="nonzero"/></g><path fill="#162b53" d="M 59.992188 31.21875 C 61.226562 30.65625 62.085938 28.769531 61.6875 27.582031 C 61.4375 26.828125 60.765625 26.367188 59.972656 26.605469 C 58.980469 26.910156 57.984375 27.292969 57.074219 27.789062 C 54.863281 28.992188 53.261719 30.871094 51.789062 32.863281 C 51.089844 33.804688 50.40625 34.757812 49.707031 35.695312 C 49.527344 35.941406 49.339844 36.195312 49.105469 36.382812 C 48.757812 36.660156 48.367188 36.613281 48.035156 36.328125 C 47.742188 36.078125 47.695312 35.765625 47.890625 35.417969 C 50.203125 31.296875 53.242188 27.894531 57.546875 25.792969 C 58.441406 25.355469 59.457031 25.042969 60.445312 24.933594 C 62.226562 24.738281 63.214844 25.558594 63.628906 27.296875 C 64.066406 29.148438 63.269531 31.34375 61.664062 32.347656 C 61.089844 32.707031 60.355469 32.90625 59.671875 32.992188 C 58.792969 33.101562 58.152344 32.566406 57.757812 31.8125 C 57.289062 30.910156 58.027344 29.835938 59.042969 29.890625 C 59.496094 29.917969 59.765625 30.128906 59.832031 30.59375 C 59.859375 30.800781 59.933594 31.003906 59.992188 31.21875 Z M 59.992188 31.21875 " fill-opacity="1" fill-rule="nonzero"/><path fill="#162b53" d="M 61.128906 40.367188 C 61.679688 40.496094 62.449219 40.554688 63.113281 40.855469 C 64.429688 41.449219 64.726562 42.664062 64.613281 43.976562 C 64.5 45.257812 63.871094 46.28125 62.683594 46.835938 C 61.511719 47.382812 60.34375 47.261719 59.25 46.550781 C 59.164062 46.496094 59.066406 46.441406 59.015625 46.359375 C 58.792969 46.011719 58.339844 45.554688 58.433594 45.328125 C 58.578125 44.976562 59.085938 44.75 59.472656 44.53125 C 59.566406 44.476562 59.804688 44.644531 59.957031 44.738281 C 60.367188 44.984375 60.738281 45.394531 61.171875 45.476562 C 62.375 45.707031 63.171875 44.601562 62.816406 43.308594 C 62.5625 42.386719 61.796875 41.808594 60.714844 41.777344 C 59.4375 41.742188 58.273438 42.164062 57.1875 42.792969 C 56.441406 43.226562 55.734375 43.726562 55.011719 44.203125 C 54.421875 44.59375 53.46875 44.332031 53.230469 43.664062 C 53.175781 43.515625 53.324219 43.183594 53.476562 43.097656 C 54.496094 42.5 55.515625 41.894531 56.589844 41.398438 C 57.289062 41.074219 58.0625 40.894531 58.816406 40.71875 C 59.507812 40.5625 60.222656 40.5 61.128906 40.367188 Z M 61.128906 40.367188 " fill-opacity="1" fill-rule="nonzero"/><path fill="#162b53" d="M 39.023438 24.683594 C 38.929688 25.910156 38.609375 27.023438 38.007812 28.054688 C 37.675781 28.617188 36.667969 28.730469 36.253906 28.230469 C 36.148438 28.101562 36.167969 27.785156 36.238281 27.59375 C 36.753906 26.214844 37.042969 24.820312 36.625 23.363281 C 36.519531 22.992188 36.367188 22.621094 36.167969 22.296875 C 35.8125 21.722656 35.21875 21.570312 34.558594 21.8125 C 34.078125 21.992188 33.820312 22.46875 33.859375 23.097656 C 33.882812 23.484375 34.042969 23.742188 34.449219 23.800781 C 34.601562 23.824219 34.75 23.851562 34.902344 23.882812 C 35.230469 23.949219 35.601562 23.953125 35.628906 24.429688 C 35.648438 24.863281 35.359375 25.257812 34.921875 25.363281 C 33.269531 25.761719 31.660156 24.21875 31.984375 22.546875 C 32.148438 21.714844 32.589844 21.082031 33.335938 20.671875 C 34.175781 20.207031 35.089844 20.011719 36.035156 20.121094 C 37.277344 20.265625 38.089844 21.023438 38.464844 22.167969 C 38.734375 22.976562 38.84375 23.84375 39.023438 24.683594 Z M 39.023438 24.683594 " fill-opacity="1" fill-rule="nonzero"/><path fill="#162b53" d="M 42.097656 31.453125 C 42.132812 31.328125 42.164062 31.175781 42.21875 31.035156 C 43.285156 28.265625 44.347656 25.496094 45.429688 22.734375 C 45.511719 22.515625 45.683594 22.257812 45.878906 22.179688 C 46.050781 22.109375 46.355469 22.21875 46.519531 22.351562 C 46.617188 22.429688 46.609375 22.726562 46.550781 22.890625 C 45.921875 24.664062 45.289062 26.4375 44.628906 28.199219 C 44.179688 29.40625 43.695312 30.597656 43.214844 31.792969 C 43.132812 31.988281 43.101562 32.289062 42.734375 32.167969 C 42.386719 32.054688 42.117188 31.886719 42.097656 31.453125 Z M 42.097656 31.453125 " fill-opacity="1" fill-rule="nonzero"/><path fill="#162b53" d="M 64.992188 35.171875 C 65.4375 35.234375 65.921875 35.164062 66.101562 35.71875 C 66.191406 35.996094 66.191406 36.257812 65.757812 36.253906 C 62.488281 36.21875 59.464844 37.136719 56.578125 38.589844 C 55.835938 38.960938 55.070312 39.285156 54.3125 39.628906 C 54.15625 39.695312 53.996094 39.773438 53.832031 39.789062 C 53.699219 39.800781 53.464844 39.753906 53.445312 39.683594 C 53.40625 39.550781 53.4375 39.328125 53.53125 39.242188 C 53.777344 39.015625 54.066406 38.828125 54.355469 38.648438 C 56.910156 37.019531 59.722656 36.070312 62.679688 35.519531 C 63.445312 35.378906 64.21875 35.285156 64.992188 35.171875 Z M 64.992188 35.171875 " fill-opacity="1" fill-rule="nonzero"/><path fill="#162b53" d="M 35.445312 32.453125 C 36.359375 32.925781 37.167969 33.472656 37.867188 34.179688 C 38.171875 34.488281 38.070312 34.804688 37.855469 35.09375 C 37.605469 35.4375 37.378906 35.15625 37.167969 35.015625 C 36.71875 34.714844 36.285156 34.402344 35.777344 34.046875 C 35.496094 34.636719 35.253906 35.15625 35.007812 35.671875 C 34.875 35.945312 34.734375 36.207031 34.359375 35.960938 C 34.074219 35.769531 33.699219 35.65625 33.980469 35.15625 C 34.359375 34.476562 34.675781 33.761719 35.03125 33.070312 C 35.140625 32.863281 35.292969 32.679688 35.445312 32.453125 Z M 35.445312 32.453125 " fill-opacity="1" fill-rule="nonzero"/><g clip-path="url(#1777604db4)"><path fill="#162b53" d="M 67.449219 39.796875 C 67.449219 39.984375 67.414062 40.164062 67.34375 40.335938 C 67.269531 40.511719 67.167969 40.664062 67.035156 40.792969 C 66.90625 40.925781 66.753906 41.027344 66.578125 41.101562 C 66.40625 41.171875 66.226562 41.207031 66.039062 41.207031 C 65.851562 41.207031 65.671875 41.171875 65.5 41.101562 C 65.328125 41.027344 65.175781 40.925781 65.042969 40.792969 C 64.910156 40.664062 64.808594 40.511719 64.738281 40.335938 C 64.667969 40.164062 64.628906 39.984375 64.628906 39.796875 C 64.628906 39.609375 64.667969 39.429688 64.738281 39.257812 C 64.808594 39.085938 64.910156 38.933594 65.042969 38.800781 C 65.175781 38.667969 65.328125 38.566406 65.5 38.496094 C 65.671875 38.425781 65.851562 38.386719 66.039062 38.386719 C 66.226562 38.386719 66.40625 38.425781 66.578125 38.496094 C 66.753906 38.566406 66.90625 38.667969 67.035156 38.800781 C 67.167969 38.933594 67.269531 39.085938 67.34375 39.257812 C 67.414062 39.429688 67.449219 39.609375 67.449219 39.796875 Z M 67.449219 39.796875 " fill-opacity="1" fill-rule="nonzero"/></g><path fill="#162b53" d="M 53.339844 23.601562 C 53.339844 23.792969 53.300781 23.976562 53.230469 24.152344 C 53.15625 24.328125 53.050781 24.484375 52.917969 24.617188 C 52.78125 24.753906 52.625 24.855469 52.449219 24.929688 C 52.273438 25.003906 52.089844 25.039062 51.898438 25.039062 C 51.710938 25.039062 51.527344 25.003906 51.351562 24.929688 C 51.171875 24.855469 51.019531 24.753906 50.882812 24.617188 C 50.75 24.484375 50.644531 24.328125 50.570312 24.152344 C 50.5 23.976562 50.460938 23.792969 50.460938 23.601562 C 50.460938 23.410156 50.5 23.226562 50.570312 23.050781 C 50.644531 22.875 50.75 22.71875 50.882812 22.582031 C 51.019531 22.449219 51.171875 22.34375 51.351562 22.273438 C 51.527344 22.199219 51.710938 22.164062 51.898438 22.164062 C 52.089844 22.164062 52.273438 22.199219 52.449219 22.273438 C 52.625 22.34375 52.78125 22.449219 52.917969 22.582031 C 53.050781 22.71875 53.15625 22.875 53.230469 23.050781 C 53.300781 23.226562 53.339844 23.410156 53.339844 23.601562 Z M 53.339844 23.601562 " fill-opacity="1" fill-rule="nonzero"/><g clip-path="url(#939f1f8ab5)"><path fill="#162b53" d="M 43.714844 20.097656 C 43.714844 20.3125 43.675781 20.519531 43.59375 20.71875 C 43.511719 20.914062 43.394531 21.089844 43.242188 21.242188 C 43.089844 21.394531 42.914062 21.511719 42.714844 21.59375 C 42.519531 21.675781 42.3125 21.714844 42.097656 21.714844 C 41.882812 21.714844 41.675781 21.675781 41.476562 21.59375 C 41.28125 21.511719 41.105469 21.394531 40.953125 21.242188 C 40.800781 21.089844 40.683594 20.914062 40.601562 20.71875 C 40.519531 20.519531 40.480469 20.3125 40.480469 20.097656 C 40.480469 19.882812 40.519531 19.675781 40.601562 19.480469 C 40.683594 19.28125 40.800781 19.105469 40.953125 18.953125 C 41.105469 18.800781 41.28125 18.683594 41.476562 18.601562 C 41.675781 18.519531 41.882812 18.480469 42.097656 18.480469 C 42.3125 18.480469 42.519531 18.519531 42.714844 18.601562 C 42.914062 18.683594 43.089844 18.800781 43.242188 18.953125 C 43.394531 19.105469 43.511719 19.28125 43.59375 19.480469 C 43.675781 19.675781 43.714844 19.882812 43.714844 20.097656 Z M 43.714844 20.097656 " fill-opacity="1" fill-rule="nonzero"/></g><path fill="#162b53" d="M 64.628906 30.886719 L 65.054688 31.746094 L 66.003906 31.886719 L 65.316406 32.554688 L 65.480469 33.503906 L 64.628906 33.054688 L 63.777344 33.503906 L 63.941406 32.554688 L 63.253906 31.886719 L 64.203125 31.746094 Z M 64.628906 30.886719 " fill-opacity="1" fill-rule="nonzero"/><path fill="#162b53" d="M 48.367188 26.820312 L 48.929688 27.957031 L 50.179688 28.140625 L 49.273438 29.023438 L 49.488281 30.269531 L 48.367188 29.679688 L 47.25 30.269531 L 47.460938 29.023438 L 46.554688 28.140625 L 47.808594 27.957031 Z M 48.367188 26.820312 " fill-opacity="1" fill-rule="nonzero"/><g clip-path="url(#51d569d3d4)"><path fill="#162b53" d="M 47.96875 18.191406 L 48.871094 19.15625 L 50.179688 18.960938 L 49.542969 20.117188 L 50.132812 21.300781 L 48.835938 21.050781 L 47.894531 21.980469 L 47.730469 20.667969 L 46.554688 20.058594 L 47.75 19.496094 Z M 47.96875 18.191406 " fill-opacity="1" fill-rule="nonzero"/></g><path fill="#162b53" d="M 54.574219 33.480469 L 54.828125 33.996094 L 55.398438 34.078125 L 54.984375 34.480469 L 55.082031 35.046875 L 54.574219 34.777344 L 54.066406 35.046875 L 54.164062 34.480469 L 53.753906 34.078125 L 54.320312 33.996094 Z M 54.574219 33.480469 " fill-opacity="1" fill-rule="nonzero"/></svg>