<svg xmlns="http://www.w3.org/2000/svg" xmlns:xlink="http://www.w3.org/1999/xlink" width="80" zoomAndPan="magnify" viewBox="0 0 60 60" height="80" preserveAspectRatio="xMidYMid meet" version="1.0"><defs><clipPath id="d675ef6495"><path d="M 2.605469 2.605469 L 57.355469 2.605469 L 57.355469 57.355469 L 2.605469 57.355469 Z M 2.605469 2.605469 " clip-rule="nonzero"/></clipPath><clipPath id="7b80e5e8ec"><path d="M 14.152344 12.867188 L 45.652344 12.867188 L 45.652344 47.367188 L 14.152344 47.367188 Z M 14.152344 12.867188 " clip-rule="nonzero"/></clipPath></defs><path fill="#162b53" d="M 56.191406 30 C 56.191406 30.855469 56.148438 31.710938 56.066406 32.566406 C 55.980469 33.417969 55.855469 34.265625 55.6875 35.109375 C 55.523438 35.949219 55.3125 36.78125 55.0625 37.601562 C 54.816406 38.421875 54.527344 39.230469 54.199219 40.023438 C 53.871094 40.816406 53.503906 41.589844 53.097656 42.347656 C 52.695312 43.101562 52.253906 43.835938 51.777344 44.550781 C 51.300781 45.265625 50.789062 45.953125 50.246094 46.617188 C 49.703125 47.277344 49.125 47.914062 48.519531 48.519531 C 47.914062 49.125 47.277344 49.703125 46.617188 50.246094 C 45.953125 50.789062 45.265625 51.300781 44.550781 51.777344 C 43.835938 52.253906 43.101562 52.695312 42.347656 53.097656 C 41.589844 53.503906 40.816406 53.871094 40.023438 54.199219 C 39.230469 54.527344 38.421875 54.816406 37.601562 55.0625 C 36.78125 55.3125 35.949219 55.523438 35.109375 55.6875 C 34.265625 55.855469 33.417969 55.980469 32.566406 56.066406 C 31.710938 56.148438 30.855469 56.191406 30 56.191406 C 29.140625 56.191406 28.285156 56.148438 27.429688 56.066406 C 26.578125 55.980469 25.730469 55.855469 24.886719 55.6875 C 24.046875 55.523438 23.214844 55.3125 22.394531 55.0625 C 21.574219 54.816406 20.765625 54.527344 19.972656 54.199219 C 19.179688 53.871094 18.40625 53.503906 17.648438 53.097656 C 16.894531 52.695312 16.160156 52.253906 15.445312 51.777344 C 14.730469 51.300781 14.042969 50.789062 13.378906 50.246094 C 12.71875 49.703125 12.082031 49.125 11.476562 48.519531 C 10.871094 47.914062 10.292969 47.277344 9.75 46.617188 C 9.207031 45.953125 8.695312 45.265625 8.21875 44.550781 C 7.742188 43.835938 7.300781 43.101562 6.898438 42.347656 C 6.492188 41.589844 6.125 40.816406 5.796875 40.023438 C 5.46875 39.230469 5.179688 38.421875 4.933594 37.601562 C 4.683594 36.78125 4.476562 35.949219 4.308594 35.109375 C 4.140625 34.265625 4.015625 33.417969 3.929688 32.566406 C 3.847656 31.710938 3.804688 30.855469 3.804688 30 C 3.804688 29.140625 3.847656 28.285156 3.929688 27.429688 C 4.015625 26.578125 4.140625 25.730469 4.308594 24.886719 C 4.476562 24.046875 4.683594 23.214844 4.933594 22.394531 C 5.179688 21.574219 5.46875 20.765625 5.796875 19.972656 C 6.125 19.179688 6.492188 18.40625 6.898438 17.648438 C 7.300781 16.894531 7.742188 16.160156 8.21875 15.445312 C 8.695312 14.730469 9.207031 14.042969 9.75 13.378906 C 10.292969 12.71875 10.871094 12.082031 11.476562 11.476562 C 12.082031 10.871094 12.71875 10.292969 13.378906 9.75 C 14.042969 9.207031 14.730469 8.695312 15.445312 8.21875 C 16.160156 7.742188 16.894531 7.300781 17.648438 6.898438 C 18.40625 6.492188 19.179688 6.125 19.972656 5.796875 C 20.765625 5.46875 21.574219 5.179688 22.394531 4.933594 C 23.214844 4.683594 24.046875 4.476562 24.886719 4.308594 C 25.730469 4.140625 26.578125 4.015625 27.429688 3.929688 C 28.285156 3.847656 29.140625 3.804688 30 3.804688 C 30.855469 3.804688 31.710938 3.847656 32.566406 3.929688 C 33.417969 4.015625 34.265625 4.140625 35.109375 4.308594 C 35.949219 4.476562 36.78125 4.683594 37.601562 4.933594 C 38.421875 5.179688 39.230469 5.46875 40.023438 5.796875 C 40.816406 6.125 41.589844 6.492188 42.347656 6.898438 C 43.101562 7.300781 43.835938 7.742188 44.550781 8.21875 C 45.265625 8.695312 45.953125 9.207031 46.617188 9.75 C 47.277344 10.292969 47.914062 10.871094 48.519531 11.476562 C 49.125 12.082031 49.703125 12.71875 50.246094 13.378906 C 50.789062 14.042969 51.300781 14.730469 51.777344 15.445312 C 52.253906 16.160156 52.695312 16.894531 53.097656 17.648438 C 53.503906 18.40625 53.871094 19.179688 54.199219 19.972656 C 54.527344 20.765625 54.816406 21.574219 55.0625 22.394531 C 55.3125 23.214844 55.523438 24.046875 55.6875 24.886719 C 55.855469 25.730469 55.980469 26.578125 56.066406 27.429688 C 56.148438 28.285156 56.191406 29.140625 56.191406 30 Z M 56.191406 30 " fill-opacity="1" fill-rule="nonzero"/><g clip-path="url(#d675ef6495)"><path fill="#162b53" d="M 30 57.390625 C 14.933594 57.390625 2.605469 45.0625 2.605469 30 C 2.605469 14.933594 14.933594 2.605469 30 2.605469 C 45.0625 2.605469 57.390625 14.933594 57.390625 30 C 57.390625 45.0625 45.0625 57.390625 30 57.390625 Z M 30 5.171875 C 16.300781 5.171875 5.171875 16.300781 5.171875 30 C 5.171875 43.695312 16.300781 54.824219 30 54.824219 C 43.695312 54.824219 54.824219 43.695312 54.824219 30 C 54.824219 16.300781 43.695312 5.171875 30 5.171875 Z M 30 5.171875 " fill-opacity="1" fill-rule="nonzero"/></g><path fill="#ffc62f" d="M 38.96875 25.402344 L 20.339844 25.402344 C 20.035156 25.402344 19.785156 25.152344 19.785156 24.847656 C 19.785156 24.539062 20.035156 24.289062 20.339844 24.289062 L 38.96875 24.289062 C 39.273438 24.289062 39.523438 24.539062 39.523438 24.847656 C 39.523438 25.152344 39.273438 25.402344 38.96875 25.402344 Z M 38.96875 25.402344 " fill-opacity="1" fill-rule="nonzero"/><path fill="#ffc62f" d="M 37.847656 30.246094 L 19.222656 30.246094 C 18.917969 30.246094 18.667969 29.996094 18.667969 29.691406 C 18.667969 29.382812 18.917969 29.132812 19.222656 29.132812 L 37.847656 29.132812 C 38.15625 29.132812 38.40625 29.382812 38.40625 29.691406 C 38.40625 29.996094 38.15625 30.246094 37.847656 30.246094 Z M 37.847656 30.246094 " fill-opacity="1" fill-rule="nonzero"/><path fill="#ffc62f" d="M 36.730469 35.460938 L 18.109375 35.460938 C 17.804688 35.460938 17.554688 35.210938 17.554688 34.90625 C 17.554688 34.601562 17.804688 34.347656 18.109375 34.347656 L 36.734375 34.347656 C 37.042969 34.347656 37.292969 34.601562 37.292969 34.90625 C 37.292969 35.210938 37.042969 35.460938 36.730469 35.460938 Z M 36.730469 35.460938 " fill-opacity="1" fill-rule="nonzero"/><path fill="#ffc62f" d="M 35.984375 40.304688 L 17.363281 40.304688 C 17.058594 40.304688 16.808594 40.054688 16.808594 39.75 C 16.808594 39.441406 17.058594 39.191406 17.363281 39.191406 L 35.984375 39.191406 C 36.289062 39.191406 36.539062 39.441406 36.539062 39.75 C 36.539062 40.054688 36.296875 40.304688 35.984375 40.304688 Z M 35.984375 40.304688 " fill-opacity="1" fill-rule="nonzero"/><g clip-path="url(#7b80e5e8ec)"><path fill="#ffc62f" d="M 45.15625 40.707031 C 45.082031 40.574219 45.007812 40.445312 44.921875 40.324219 C 44.441406 39.625 43.796875 39.210938 43.09375 39.136719 C 42.625 39.101562 39.957031 38.886719 39.957031 38.886719 C 39.792969 34.882812 40.734375 30.691406 41.601562 26.816406 C 42.59375 22.386719 43.457031 18.585938 42.570312 15.753906 C 42.5625 15.730469 42.550781 15.710938 42.542969 15.691406 C 42.179688 14.070312 40.972656 12.875 39.546875 12.875 C 39.339844 12.875 39.144531 12.898438 38.949219 12.945312 C 38.753906 12.917969 38.558594 12.890625 38.355469 12.878906 C 38.332031 12.878906 38.308594 12.878906 38.28125 12.878906 C 38.140625 12.886719 37.972656 12.898438 37.929688 12.898438 L 19.816406 12.898438 C 19.6875 12.886719 19.539062 12.875 19.394531 12.875 C 18.144531 12.875 16.976562 13.285156 16.089844 14.023438 C 15.1875 14.78125 14.683594 15.800781 14.683594 16.890625 C 14.683594 17.960938 15.164062 18.964844 16.03125 19.710938 C 16.507812 20.121094 17.078125 20.433594 17.707031 20.632812 C 17.738281 23.753906 16.8125 27.445312 15.910156 31.058594 C 15.15625 34.09375 14.367188 37.222656 14.191406 39.933594 C 13.980469 43.074219 14.628906 45.332031 16.164062 46.84375 C 16.269531 46.945312 16.410156 46.996094 16.554688 46.996094 L 23.464844 46.996094 C 23.730469 47.050781 24 47.085938 24.28125 47.097656 C 24.285156 47.097656 24.292969 47.117188 24.296875 47.117188 L 41.761719 47.09375 C 41.773438 47.09375 41.785156 47.085938 41.800781 47.085938 C 42.367188 47.050781 42.894531 46.921875 43.371094 46.714844 C 43.964844 46.574219 44.507812 46.179688 44.921875 45.578125 C 44.9375 45.558594 44.949219 45.539062 44.960938 45.515625 C 45.515625 44.824219 45.839844 43.949219 45.839844 42.976562 C 45.839844 42.128906 45.597656 41.355469 45.15625 40.707031 Z M 39.546875 13.761719 C 40.8125 13.761719 41.839844 15.074219 41.839844 16.695312 C 41.839844 18.316406 40.8125 19.628906 39.546875 19.628906 C 38.28125 19.628906 37.253906 18.316406 37.253906 16.695312 C 37.253906 15.074219 38.28125 13.761719 39.546875 13.761719 Z M 15.804688 16.886719 C 15.804688 15.269531 17.414062 13.960938 19.394531 13.960938 C 19.492188 13.960938 19.601562 13.96875 19.710938 13.980469 L 19.761719 13.988281 C 19.777344 13.988281 19.792969 13.988281 19.808594 13.988281 L 37.351562 13.992188 C 36.789062 14.683594 36.4375 15.644531 36.4375 16.703125 C 36.4375 17.972656 36.945312 19.105469 37.726562 19.800781 L 19.289062 19.808594 C 17.339844 19.746094 15.804688 18.46875 15.804688 16.886719 Z M 16.796875 45.894531 C 15.601562 44.609375 15.125 42.734375 15.304688 40.011719 C 15.472656 37.40625 16.214844 34.453125 16.992188 31.335938 C 17.890625 27.746094 18.808594 24.082031 18.820312 20.871094 C 18.964844 20.882812 19.113281 20.894531 19.265625 20.902344 C 19.273438 20.902344 19.277344 20.902344 19.285156 20.902344 L 38.3125 20.894531 C 38.324219 20.894531 38.335938 20.894531 38.34375 20.894531 C 40.152344 20.957031 41.414062 19.828125 41.785156 19.34375 C 41.664062 21.433594 41.109375 23.894531 40.503906 26.589844 C 39.769531 29.867188 39.003906 33.253906 38.84375 36.691406 C 38.675781 40.28125 39.210938 43.332031 40.492188 45.898438 L 16.796875 45.898438 Z M 40.246094 41.558594 C 40.148438 41.046875 40.050781 40.433594 40 39.914062 L 41.058594 40.011719 C 40.972656 40.109375 40.886719 40.214844 40.8125 40.324219 C 40.570312 40.683594 40.375 41.105469 40.246094 41.558594 Z M 43.035156 45.828125 C 41.914062 45.828125 41.003906 44.511719 41.003906 42.890625 C 41.003906 41.269531 41.910156 39.957031 43.035156 39.957031 C 44.152344 39.957031 45.0625 41.269531 45.0625 42.890625 C 45.0625 44.511719 44.152344 45.828125 43.035156 45.828125 Z M 43.035156 45.828125 " fill-opacity="1" fill-rule="nonzero"/></g></svg>