<svg xmlns="http://www.w3.org/2000/svg" xmlns:xlink="http://www.w3.org/1999/xlink" width="80" zoomAndPan="magnify" viewBox="0 0 60 60" height="80" preserveAspectRatio="xMidYMid meet" version="1.0"><defs><clipPath id="bf639113f3"><path d="M 2.605469 2.605469 L 57.355469 2.605469 L 57.355469 57.355469 L 2.605469 57.355469 Z M 2.605469 2.605469 " clip-rule="nonzero"/></clipPath><clipPath id="a534834df6"><path d="M 14.1875 12.902344 L 45.6875 12.902344 L 45.6875 47.402344 L 14.1875 47.402344 Z M 14.1875 12.902344 " clip-rule="nonzero"/></clipPath></defs><path fill="#ffc62f" d="M 56.191406 30 C 56.191406 30.855469 56.148438 31.710938 56.066406 32.566406 C 55.980469 33.417969 55.855469 34.265625 55.6875 35.109375 C 55.523438 35.949219 55.3125 36.78125 55.0625 37.601562 C 54.816406 38.421875 54.527344 39.230469 54.199219 40.023438 C 53.871094 40.816406 53.503906 41.589844 53.097656 42.347656 C 52.695312 43.101562 52.253906 43.835938 51.777344 44.550781 C 51.300781 45.265625 50.789062 45.953125 50.246094 46.617188 C 49.703125 47.277344 49.125 47.914062 48.519531 48.519531 C 47.914062 49.125 47.277344 49.703125 46.617188 50.246094 C 45.953125 50.789062 45.265625 51.300781 44.550781 51.777344 C 43.835938 52.253906 43.101562 52.695312 42.347656 53.097656 C 41.589844 53.503906 40.816406 53.871094 40.023438 54.199219 C 39.230469 54.527344 38.421875 54.816406 37.601562 55.0625 C 36.78125 55.3125 35.949219 55.523438 35.109375 55.6875 C 34.265625 55.855469 33.417969 55.980469 32.566406 56.066406 C 31.710938 56.148438 30.855469 56.191406 30 56.191406 C 29.140625 56.191406 28.285156 56.148438 27.429688 56.066406 C 26.578125 55.980469 25.730469 55.855469 24.886719 55.6875 C 24.046875 55.523438 23.214844 55.3125 22.394531 55.0625 C 21.574219 54.816406 20.765625 54.527344 19.972656 54.199219 C 19.179688 53.871094 18.40625 53.503906 17.648438 53.097656 C 16.894531 52.695312 16.160156 52.253906 15.445312 51.777344 C 14.730469 51.300781 14.042969 50.789062 13.378906 50.246094 C 12.71875 49.703125 12.082031 49.125 11.476562 48.519531 C 10.871094 47.914062 10.292969 47.277344 9.75 46.617188 C 9.207031 45.953125 8.695312 45.265625 8.21875 44.550781 C 7.742188 43.835938 7.300781 43.101562 6.898438 42.347656 C 6.492188 41.589844 6.125 40.816406 5.796875 40.023438 C 5.46875 39.230469 5.179688 38.421875 4.933594 37.601562 C 4.683594 36.78125 4.476562 35.949219 4.308594 35.109375 C 4.140625 34.265625 4.015625 33.417969 3.929688 32.566406 C 3.847656 31.710938 3.804688 30.855469 3.804688 30 C 3.804688 29.140625 3.847656 28.285156 3.929688 27.429688 C 4.015625 26.578125 4.140625 25.730469 4.308594 24.886719 C 4.476562 24.046875 4.683594 23.214844 4.933594 22.394531 C 5.179688 21.574219 5.46875 20.765625 5.796875 19.972656 C 6.125 19.179688 6.492188 18.40625 6.898438 17.648438 C 7.300781 16.894531 7.742188 16.160156 8.21875 15.445312 C 8.695312 14.730469 9.207031 14.042969 9.75 13.378906 C 10.292969 12.71875 10.871094 12.082031 11.476562 11.476562 C 12.082031 10.871094 12.71875 10.292969 13.378906 9.75 C 14.042969 9.207031 14.730469 8.695312 15.445312 8.21875 C 16.160156 7.742188 16.894531 7.300781 17.648438 6.898438 C 18.40625 6.492188 19.179688 6.125 19.972656 5.796875 C 20.765625 5.46875 21.574219 5.179688 22.394531 4.933594 C 23.214844 4.683594 24.046875 4.476562 24.886719 4.308594 C 25.730469 4.140625 26.578125 4.015625 27.429688 3.929688 C 28.285156 3.847656 29.140625 3.804688 30 3.804688 C 30.855469 3.804688 31.710938 3.847656 32.566406 3.929688 C 33.417969 4.015625 34.265625 4.140625 35.109375 4.308594 C 35.949219 4.476562 36.78125 4.683594 37.601562 4.933594 C 38.421875 5.179688 39.230469 5.46875 40.023438 5.796875 C 40.816406 6.125 41.589844 6.492188 42.347656 6.898438 C 43.101562 7.300781 43.835938 7.742188 44.550781 8.21875 C 45.265625 8.695312 45.953125 9.207031 46.617188 9.75 C 47.277344 10.292969 47.914062 10.871094 48.519531 11.476562 C 49.125 12.082031 49.703125 12.71875 50.246094 13.378906 C 50.789062 14.042969 51.300781 14.730469 51.777344 15.445312 C 52.253906 16.160156 52.695312 16.894531 53.097656 17.648438 C 53.503906 18.40625 53.871094 19.179688 54.199219 19.972656 C 54.527344 20.765625 54.816406 21.574219 55.0625 22.394531 C 55.3125 23.214844 55.523438 24.046875 55.6875 24.886719 C 55.855469 25.730469 55.980469 26.578125 56.066406 27.429688 C 56.148438 28.285156 56.191406 29.140625 56.191406 30 Z M 56.191406 30 " fill-opacity="1" fill-rule="nonzero"/><g clip-path="url(#bf639113f3)"><path fill="#ffc62f" d="M 30 57.390625 C 14.933594 57.390625 2.605469 45.0625 2.605469 30 C 2.605469 14.933594 14.933594 2.605469 30 2.605469 C 45.0625 2.605469 57.390625 14.933594 57.390625 30 C 57.390625 45.0625 45.0625 57.390625 30 57.390625 Z M 30 5.171875 C 16.300781 5.171875 5.171875 16.300781 5.171875 30 C 5.171875 43.695312 16.300781 54.824219 30 54.824219 C 43.695312 54.824219 54.824219 43.695312 54.824219 30 C 54.824219 16.300781 43.695312 5.171875 30 5.171875 Z M 30 5.171875 " fill-opacity="1" fill-rule="nonzero"/></g><path fill="#162b53" d="M 38.945312 25.414062 L 20.359375 25.414062 C 20.054688 25.414062 19.804688 25.164062 19.804688 24.859375 C 19.804688 24.554688 20.054688 24.304688 20.359375 24.304688 L 38.945312 24.304688 C 39.25 24.304688 39.5 24.554688 39.5 24.859375 C 39.5 25.164062 39.25 25.414062 38.945312 25.414062 Z M 38.945312 25.414062 " fill-opacity="1" fill-rule="nonzero"/><path fill="#162b53" d="M 37.828125 30.246094 L 19.246094 30.246094 C 18.9375 30.246094 18.6875 29.996094 18.6875 29.691406 C 18.6875 29.386719 18.9375 29.136719 19.246094 29.136719 L 37.828125 29.136719 C 38.132812 29.136719 38.382812 29.386719 38.382812 29.691406 C 38.382812 29.996094 38.132812 30.246094 37.828125 30.246094 Z M 37.828125 30.246094 " fill-opacity="1" fill-rule="nonzero"/><path fill="#162b53" d="M 36.710938 35.449219 L 18.132812 35.449219 C 17.828125 35.449219 17.578125 35.199219 17.578125 34.894531 C 17.578125 34.589844 17.828125 34.339844 18.132812 34.339844 L 36.71875 34.339844 C 37.023438 34.339844 37.273438 34.589844 37.273438 34.894531 C 37.273438 35.199219 37.023438 35.449219 36.710938 35.449219 Z M 36.710938 35.449219 " fill-opacity="1" fill-rule="nonzero"/><path fill="#162b53" d="M 35.96875 40.28125 L 17.390625 40.28125 C 17.085938 40.28125 16.835938 40.03125 16.835938 39.726562 C 16.835938 39.421875 17.085938 39.171875 17.390625 39.171875 L 35.96875 39.171875 C 36.273438 39.171875 36.523438 39.421875 36.523438 39.726562 C 36.523438 40.03125 36.277344 40.28125 35.96875 40.28125 Z M 35.96875 40.28125 " fill-opacity="1" fill-rule="nonzero"/><g clip-path="url(#a534834df6)"><path fill="#162b53" d="M 45.121094 40.683594 C 45.046875 40.550781 44.972656 40.421875 44.886719 40.300781 C 44.40625 39.605469 43.765625 39.191406 43.0625 39.117188 C 42.59375 39.082031 39.933594 38.867188 39.933594 38.867188 C 39.769531 34.871094 40.707031 30.691406 41.574219 26.824219 C 42.5625 22.40625 43.425781 18.609375 42.539062 15.785156 C 42.53125 15.761719 42.519531 15.742188 42.515625 15.726562 C 42.148438 14.109375 40.945312 12.914062 39.523438 12.914062 C 39.316406 12.914062 39.121094 12.9375 38.925781 12.984375 C 38.730469 12.953125 38.535156 12.929688 38.335938 12.917969 C 38.3125 12.917969 38.285156 12.917969 38.261719 12.917969 C 38.121094 12.925781 37.949219 12.9375 37.910156 12.9375 L 19.835938 12.9375 C 19.707031 12.925781 19.5625 12.914062 19.414062 12.914062 C 18.171875 12.914062 17.003906 13.320312 16.121094 14.058594 C 15.21875 14.816406 14.71875 15.835938 14.71875 16.921875 C 14.71875 17.988281 15.191406 18.988281 16.058594 19.734375 C 16.535156 20.140625 17.101562 20.453125 17.730469 20.65625 C 17.761719 23.765625 16.839844 27.453125 15.9375 31.058594 C 15.1875 34.082031 14.398438 37.207031 14.222656 39.910156 C 14.015625 43.046875 14.664062 45.296875 16.195312 46.804688 C 16.296875 46.910156 16.4375 46.957031 16.585938 46.957031 L 23.480469 46.957031 C 23.742188 47.011719 24.007812 47.050781 24.289062 47.0625 C 24.296875 47.0625 24.300781 47.078125 24.308594 47.078125 L 41.734375 47.054688 C 41.746094 47.054688 41.757812 47.050781 41.769531 47.050781 C 42.339844 47.011719 42.863281 46.882812 43.339844 46.675781 C 43.929688 46.535156 44.472656 46.144531 44.886719 45.542969 C 44.902344 45.523438 44.914062 45.503906 44.925781 45.480469 C 45.480469 44.792969 45.804688 43.917969 45.804688 42.949219 C 45.804688 42.101562 45.558594 41.332031 45.121094 40.683594 Z M 39.523438 13.796875 C 40.789062 13.796875 41.8125 15.109375 41.8125 16.726562 C 41.8125 18.34375 40.789062 19.652344 39.523438 19.652344 C 38.261719 19.652344 37.238281 18.34375 37.238281 16.726562 C 37.238281 15.109375 38.261719 13.796875 39.523438 13.796875 Z M 15.832031 16.914062 C 15.832031 15.304688 17.4375 14 19.414062 14 C 19.511719 14 19.621094 14.003906 19.734375 14.015625 L 19.78125 14.023438 C 19.800781 14.023438 19.8125 14.023438 19.828125 14.023438 L 37.335938 14.027344 C 36.773438 14.71875 36.417969 15.675781 36.417969 16.730469 C 36.417969 18 36.925781 19.128906 37.707031 19.824219 L 19.3125 19.832031 C 17.363281 19.769531 15.832031 18.496094 15.832031 16.914062 Z M 16.820312 45.859375 C 15.632812 44.578125 15.15625 42.703125 15.332031 39.988281 C 15.503906 37.390625 16.242188 34.445312 17.015625 31.332031 C 17.914062 27.75 18.828125 24.097656 18.839844 20.894531 C 18.988281 20.90625 19.132812 20.917969 19.285156 20.921875 C 19.292969 20.921875 19.300781 20.921875 19.304688 20.921875 L 38.292969 20.917969 C 38.304688 20.917969 38.316406 20.917969 38.324219 20.917969 C 40.128906 20.976562 41.386719 19.847656 41.757812 19.367188 C 41.636719 21.453125 41.082031 23.90625 40.476562 26.597656 C 39.746094 29.867188 38.980469 33.246094 38.824219 36.675781 C 38.652344 40.257812 39.191406 43.304688 40.464844 45.867188 L 16.820312 45.867188 Z M 40.222656 41.535156 C 40.125 41.019531 40.027344 40.410156 39.976562 39.890625 L 41.03125 39.988281 C 40.945312 40.085938 40.863281 40.191406 40.789062 40.300781 C 40.542969 40.660156 40.347656 41.082031 40.222656 41.535156 Z M 43.003906 45.792969 C 41.886719 45.792969 40.976562 44.480469 40.976562 42.863281 C 40.976562 41.246094 41.878906 39.933594 43.003906 39.933594 C 44.121094 39.933594 45.027344 41.246094 45.027344 42.863281 C 45.027344 44.480469 44.121094 45.792969 43.003906 45.792969 Z M 43.003906 45.792969 " fill-opacity="1" fill-rule="nonzero"/></g></svg>